<svg id="XMLID_1_" xmlns="http://www.w3.org/2000/svg" width="93.451" height="93.433" viewBox="0 0 93.451 93.433">
  <g id="XMLID_3943_" transform="translate(1.259 1.259)">
    <path id="XMLID_1891_" d="M89.658,47.832a37.2,37.2,0,0,0-7.646-18.5l5.785-5.8-6.57-6.588L75.387,22.7a37.038,37.038,0,0,0-18.5-7.646V6.9H47.594v8.157A37.675,37.675,0,0,0,29.218,22.7L23.47,16.918l-6.551,6.57,5.785,5.84a37.016,37.016,0,0,0-7.628,18.5H6.9V57.12h8.157A37.675,37.675,0,0,0,22.7,75.5l-5.767,5.748,6.57,6.551,5.712-5.785a37.551,37.551,0,0,0,18.376,7.628V97.8h9.289V89.639a37.2,37.2,0,0,0,18.5-7.646l5.8,5.767,6.588-6.57-5.767-5.712A37.575,37.575,0,0,0,89.658,57.1h8.157V47.813H89.658Zm-37.3,31.479A26.953,26.953,0,1,1,79.311,52.357,26.947,26.947,0,0,1,52.357,79.311Z" transform="translate(-6.9 -6.9)" fill="#aaa"/>
    <g id="Grupo_1113089" data-name="Grupo 1113089" transform="translate(24.601 33.286)">
      <path id="XMLID_1497_" d="M228.178,189.3s-6.278,5.511-6.278,13.887,6.278,10.456,6.278,10.456,6.278-2.1,6.278-10.456S228.178,189.3,228.178,189.3Z" transform="translate(-207.267 -189.3)" fill="#03e272"/>
      <path id="XMLID_1496_" d="M142.348,228.4s-2.026,6,1.15,11.5,8.084,4.489,8.084,4.489,3.321-3.759.164-9.252C148.571,229.641,142.348,228.4,142.348,228.4Z" transform="translate(-141.712 -221.265)" fill="#03e272"/>
      <path id="XMLID_1495_" d="M319.4,228.4s2.026,6-1.15,11.5-8.084,4.489-8.084,4.489-3.321-3.759-.164-9.252A15.33,15.33,0,0,1,319.4,228.4Z" transform="translate(-278.176 -221.265)" fill="#03e272"/>
    </g>
    <path id="XMLID_1929_" d="M38.406,75.469A26.958,26.958,0,1,1,75.451,38.424c.055-.821.073-1.642.073-2.482a39.377,39.377,0,0,0-3.011-15.219,37.255,37.255,0,0,0-15.53-5.566V7H47.676v8.139a37.882,37.882,0,0,0-18.395,7.646L23.551,17,17,23.57l5.785,5.821a37.154,37.154,0,0,0-7.646,18.486H7v9.307h8.139A37.723,37.723,0,0,0,20.6,72.458a39.3,39.3,0,0,0,15.329,3.084c.839,0,1.661-.018,2.482-.073Z" transform="translate(-6.982 -6.982)" fill="#d2dbe2"/>
    <path id="XMLID_1951_" d="M229.8,6.9h4.653v8.157H229.8Z" transform="translate(-189.124 -6.9)" fill="#fff"/>
    <path id="XMLID_15_" d="M0,0H9.289V8.157H0Z" transform="translate(22.299 15.789) rotate(135)" fill="#fff"/>
    <path id="XMLID_432_" d="M6.9,231.2h8.157v4.526H6.9Z" transform="translate(-6.9 -190.268)" fill="#fff"/>
  </g>
  <g id="XMLID_1286_" transform="translate(0)">
    <g id="XMLID_1129_" transform="translate(13.339 13.391)">
      <path id="XMLID_2620_" d="M105.763,140.1h-.292a1.278,1.278,0,0,1,.036-2.555h.037l.237.018a1.269,1.269,0,0,1-.018,2.537Zm12.281-2.135a1.242,1.242,0,0,1-1.168-.8,1.26,1.26,0,0,1,.712-1.624l.219-.091a1.254,1.254,0,0,1,.912,2.336l-.237.091A.9.9,0,0,1,118.044,137.964Zm-24.709-.657a1.288,1.288,0,0,1-.511-.109c-.073-.036-.164-.073-.237-.109a1.254,1.254,0,0,1,1.04-2.281l.219.091a1.264,1.264,0,0,1,.639,1.661A1.231,1.231,0,0,1,93.336,137.307Zm35.439-6.186a1.286,1.286,0,0,1-.912-.383,1.262,1.262,0,0,1,.036-1.77l.164-.164a1.252,1.252,0,1,1,1.752,1.788l-.182.182A1.2,1.2,0,0,1,128.775,131.121Zm-45.786-1.2a1.206,1.206,0,0,1-.912-.4l-.182-.182a1.253,1.253,0,0,1,1.843-1.7l.164.182a1.245,1.245,0,0,1-.055,1.77A1.262,1.262,0,0,1,82.989,129.917Zm53.031-9.252a1.2,1.2,0,0,1-.493-.109,1.252,1.252,0,0,1-.657-1.642l.091-.219a1.256,1.256,0,0,1,2.318.967c-.036.073-.073.164-.109.237A1.266,1.266,0,0,1,136.019,120.665ZM76.31,119.1a1.274,1.274,0,0,1-1.186-.821l-.091-.237a1.253,1.253,0,1,1,2.354-.858l.091.237a1.244,1.244,0,0,1-.748,1.606A1.554,1.554,0,0,1,76.31,119.1Zm62.319-10.931h0a1.235,1.235,0,0,1-1.259-1.241v-.237a1.246,1.246,0,0,1,1.259-1.241,1.262,1.262,0,0,1,1.259,1.259v.237A1.254,1.254,0,0,1,138.629,108.164Zm-64.272-1.642H74.3a1.275,1.275,0,0,1-1.2-1.314l.018-.255a1.252,1.252,0,0,1,2.5.128l-.018.237a1.235,1.235,0,0,1-1.241,1.2Zm62.83-8.1a1.271,1.271,0,0,1-1.2-.876l-.073-.237a1.264,1.264,0,1,1,2.409-.766l.073.255a1.259,1.259,0,0,1-.821,1.569A1.39,1.39,0,0,1,137.187,98.42ZM77.423,94.168a1.2,1.2,0,0,1-.547-.128,1.27,1.27,0,0,1-.6-1.679l.109-.237a1.257,1.257,0,1,1,2.263,1.095l-.109.219A1.182,1.182,0,0,1,77.423,94.168Zm53.651-6.9a1.225,1.225,0,0,1-.967-.456l-.146-.182a1.255,1.255,0,0,1,1.9-1.642c.055.073.109.128.164.2a1.265,1.265,0,0,1-.146,1.77,1.114,1.114,0,0,1-.8.31ZM85.051,83.985a1.235,1.235,0,0,1-.931-.42,1.263,1.263,0,0,1,.091-1.77l.2-.164a1.254,1.254,0,1,1,1.661,1.88l-.182.164A1.231,1.231,0,0,1,85.051,83.985Zm36.078-4.653a1.05,1.05,0,0,1-.566-.146l-.219-.109a1.253,1.253,0,0,1,1.113-2.245l.237.109a1.264,1.264,0,0,1,.547,1.7A1.214,1.214,0,0,1,121.128,79.332Zm-25.11-1.788a1.245,1.245,0,0,1-.4-2.427c.091-.036.164-.055.255-.091a1.258,1.258,0,1,1,.785,2.391l-.219.073A1.657,1.657,0,0,1,96.018,77.543ZM108.884,75.9h-.091l-.237-.018a1.253,1.253,0,0,1,.164-2.5l.255.018a1.251,1.251,0,0,1-.091,2.5Z" transform="translate(-73.097 -73.379)" fill="#111"/>
    </g>
    <g id="XMLID_1102_" transform="translate(39.235 33.263)">
      <path id="XMLID_2617_" d="M222.537,209.16a1.04,1.04,0,0,1-.4-.073C221.843,209,215,206.605,215,197.426c0-8.832,6.423-14.581,6.7-14.836a1.252,1.252,0,0,1,1.661,0c.274.237,6.7,5.986,6.7,14.836,0,9.161-6.843,11.551-7.135,11.661A.953.953,0,0,1,222.537,209.16Zm0-23.814c-1.606,1.77-5.018,6.2-5.018,12.1,0,6.186,3.777,8.5,5.018,9.106,1.259-.6,5.018-2.883,5.018-9.106C227.555,191.532,224.143,187.115,222.537,185.345Z" transform="translate(-215 -182.275)" fill="#111"/>
    </g>
    <g id="XMLID_1101_" transform="translate(24.6 40.431)">
      <path id="XMLID_2614_" d="M144.986,240.1c-1.9,0-5.6-.639-8.23-5.183a16.429,16.429,0,0,1-1.241-12.519,1.248,1.248,0,0,1,1.442-.821,16.437,16.437,0,0,1,10.219,7.336c3.577,6.2-.146,10.529-.31,10.712a1.276,1.276,0,0,1-.693.4C146.118,240.013,145.68,240.1,144.986,240.1Zm-7.372-15.749a13.769,13.769,0,0,0,1.314,9.307c2.172,3.759,5.2,3.978,6.314,3.923.6-.949,1.916-3.668-.255-7.427A13.562,13.562,0,0,0,137.614,224.356Z" transform="translate(-134.804 -221.556)" fill="#111"/>
    </g>
    <g id="XMLID_1100_" transform="translate(29.302 47.478)">
      <path id="XMLID_2613_" d="M167,271.6a1.262,1.262,0,0,1-1.095-.62l-5.164-8.924a1.255,1.255,0,0,1,2.172-1.259l5.164,8.924A1.247,1.247,0,0,1,167,271.6Z" transform="translate(-160.57 -260.17)" fill="#111"/>
    </g>
    <g id="XMLID_1099_" transform="translate(55.06 40.414)">
      <path id="XMLID_2598_" d="M305.477,240.027a8.856,8.856,0,0,1-1.2-.091,1.276,1.276,0,0,1-.693-.4c-.164-.182-3.887-4.507-.31-10.712a16.437,16.437,0,0,1,10.219-7.336,1.266,1.266,0,0,1,1.442.821,16.433,16.433,0,0,1-1.241,12.519C311.08,239.388,307.375,240.027,305.477,240.027Zm-.255-2.518c1.113.055,4.142-.182,6.314-3.923a13.659,13.659,0,0,0,1.332-9.289,13.679,13.679,0,0,0-7.391,5.8C303.287,233.84,304.6,236.559,305.222,237.508Z" transform="translate(-301.722 -221.46)" fill="#111"/>
    </g>
    <g id="XMLID_1098_" transform="translate(56.62 47.478)">
      <path id="XMLID_2597_" d="M311.517,271.6a1.214,1.214,0,0,1-.62-.164,1.253,1.253,0,0,1-.456-1.715L315.6,260.8a1.255,1.255,0,0,1,2.172,1.259l-5.164,8.924A1.262,1.262,0,0,1,311.517,271.6Z" transform="translate(-310.27 -260.17)" fill="#111"/>
    </g>
    <g id="XMLID_1097_" transform="translate(45.439 40.165)">
      <path id="XMLID_2596_" d="M250.277,239.955A1.277,1.277,0,0,1,249,238.7V221.359a1.278,1.278,0,0,1,2.555,0V238.7A1.266,1.266,0,0,1,250.277,239.955Z" transform="translate(-249 -220.1)" fill="#111"/>
    </g>
    <g id="XMLID_226_" transform="translate(31.223 80.203)">
      <circle id="XMLID_2059_" cx="1.259" cy="1.259" r="1.259" fill="#111"/>
    </g>
    <g id="XMLID_1813_" transform="translate(18.504 18.504)">
      <path id="XMLID_1635_" d="M129.612,157.825a28.212,28.212,0,1,1,15.913-51.516,1.26,1.26,0,1,1-1.423,2.08,25.673,25.673,0,1,0,6.77,6.77,1.26,1.26,0,0,1,2.08-1.423,28.213,28.213,0,0,1-23.34,44.089Z" transform="translate(-101.4 -101.4)" fill="#111"/>
    </g>
    <g id="XMLID_1060_" transform="translate(0)">
      <path id="XMLID_2055_" fill="#111"/>
    </g>
    <g id="XMLID_1887_" transform="translate(0 0)">
      <path id="XMLID_1634_" d="M51.242,93.433H41.954a1.246,1.246,0,0,1-1.241-1.259V85.112a37.127,37.127,0,0,1-3.759-.785,1.255,1.255,0,1,1,.639-2.427,39.417,39.417,0,0,0,4.562.876,1.291,1.291,0,0,1,1.131,1.241v6.861h6.752V84.017a1.23,1.23,0,0,1,1.095-1.241,35.648,35.648,0,0,0,17.884-7.391,1.276,1.276,0,0,1,1.661.091l4.909,4.891,4.8-4.8L75.513,70.75a1.256,1.256,0,0,1-.109-1.661A36.208,36.208,0,0,0,82.794,51.3a1.291,1.291,0,0,1,1.241-1.131h6.843V43.414H84.017a1.23,1.23,0,0,1-1.241-1.095,35.648,35.648,0,0,0-7.391-17.884,1.276,1.276,0,0,1,.091-1.661l4.909-4.891-4.8-4.818-4.964,4.891a1.254,1.254,0,0,1-1.661.091,35.715,35.715,0,0,0-17.884-7.391,1.243,1.243,0,0,1-1.095-1.241V2.555H43.231V9.416A1.262,1.262,0,0,1,42.1,10.657a36.076,36.076,0,0,0-17.774,7.391,1.255,1.255,0,0,1-1.661-.109l-4.836-4.872-4.8,4.8,4.909,4.945a1.254,1.254,0,0,1,.091,1.661,35.718,35.718,0,0,0-7.372,17.884A1.243,1.243,0,0,1,9.416,43.45H2.555V50.2H9.416a1.262,1.262,0,0,1,1.241,1.131,36.076,36.076,0,0,0,7.391,17.774,1.255,1.255,0,0,1-.109,1.661l-4.872,4.854L17.847,80.4l4.818-4.872a1.256,1.256,0,0,1,1.661-.109,36.158,36.158,0,0,0,4.215,2.829,1.255,1.255,0,0,1-1.259,2.172,42.528,42.528,0,0,1-3.631-2.354L18.723,83.05a1.24,1.24,0,0,1-.894.365,1.337,1.337,0,0,1-.894-.347l-6.57-6.551A1.24,1.24,0,0,1,10,75.622a1.271,1.271,0,0,1,.365-.894l5-4.964A38.8,38.8,0,0,1,8.321,52.739H1.259A1.246,1.246,0,0,1,0,51.5V42.209A1.31,1.31,0,0,1,1.259,40.9H8.321A38.083,38.083,0,0,1,15.4,23.778l-5.018-5.037a1.245,1.245,0,0,1,0-1.77l6.551-6.57a1.24,1.24,0,0,1,.894-.365,1.271,1.271,0,0,1,.894.365l4.964,5a38.276,38.276,0,0,1,17.008-7.08V1.259A1.246,1.246,0,0,1,41.935,0h9.289a1.31,1.31,0,0,1,1.314,1.259V8.321a38.2,38.2,0,0,1,17.117,7.1L74.71,10.4a1.261,1.261,0,0,1,1.77,0l6.57,6.588a1.245,1.245,0,0,1,0,1.77l-5,5a38.288,38.288,0,0,1,7.08,17.117h7.062a1.31,1.31,0,0,1,1.259,1.314v9.289a1.246,1.246,0,0,1-1.259,1.241H85.13a38.363,38.363,0,0,1-7.08,17.008l4.982,4.945a1.24,1.24,0,0,1,.365.894,1.271,1.271,0,0,1-.365.894l-6.588,6.57a1.245,1.245,0,0,1-1.77,0l-5-5a38.288,38.288,0,0,1-17.117,7.08v7.062a1.31,1.31,0,0,1-1.314,1.259Z" transform="translate(0 0)" fill="#111"/>
    </g>
    <g id="XMLID_1067_" transform="translate(0)">
      <path id="XMLID_2005_" fill="none" stroke="#111" stroke-linecap="round" stroke-linejoin="round" stroke-miterlimit="10" stroke-width="10"/>
    </g>
    <circle id="XMLID_1814_" cx="1.259" cy="1.259" r="1.259" transform="translate(64.637 26.461)" fill="#111"/>
  </g>
</svg>
