<svg xmlns="http://www.w3.org/2000/svg" xmlns:xlink="http://www.w3.org/1999/xlink" width="108.914" height="108.914" viewBox="0 0 108.914 108.914">
  <defs>
    <filter id="Trazado_874925" x="0" y="0" width="108.914" height="108.914" filterUnits="userSpaceOnUse">
      <feOffset dy="3" input="SourceAlpha"/>
      <feGaussianBlur stdDeviation="3" result="blur"/>
      <feFlood flood-opacity="0.161"/>
      <feComposite operator="in" in2="blur"/>
      <feComposite in="SourceGraphic"/>
    </filter>
  </defs>
  <g id="Grupo_1113094" data-name="Grupo 1113094" transform="translate(-800.699 -867.211)">
    <g id="Grupo_1109131" data-name="Grupo 1109131" transform="translate(809.699 873.211)">
      <g transform="matrix(1, 0, 0, 1, -9, -6)" filter="url(#Trazado_874925)">
        <g id="Trazado_874925-2" data-name="Trazado 874925" transform="translate(9 6)" fill="#cdd2dc" opacity="0.859">
          <path d="M 45.45676803588867 89.41407012939453 C 39.52198028564453 89.41407012939453 33.76551818847656 88.25206756591797 28.34726715087891 85.96034240722656 C 23.11311721801758 83.74648284912109 18.41204261779785 80.57682800292969 14.37464332580566 76.5394287109375 C 10.33724308013916 72.50202941894531 7.167593002319336 67.80095672607422 4.953730583190918 62.56679534912109 C 2.662005424499512 57.14855575561523 1.500005483627319 51.39208221435547 1.500005483627319 45.45729446411133 C 1.500005483627319 39.52198028564453 2.662005424499512 33.76551818847656 4.953730583190918 28.34726905822754 C 7.167593002319336 23.11310577392578 10.33724308013916 18.41203117370605 14.37464332580566 14.37464332580566 C 18.41204261779785 10.33724403381348 23.11311721801758 7.167593955993652 28.34726715087891 4.953731060028076 C 33.76551818847656 2.662006139755249 39.52198028564453 1.500006198883057 45.45676803588867 1.500006198883057 C 51.39155578613281 1.500006198883057 57.14802932739258 2.662006139755249 62.56626892089844 4.953731060028076 C 67.80043029785156 7.167593955993652 72.50150299072266 10.33724403381348 76.53890228271484 14.37464332580566 C 80.57630920410156 18.41203117370605 83.74595642089844 23.11310577392578 85.95981597900391 28.34726905822754 C 88.25154113769531 33.76551818847656 89.41354370117188 39.52198028564453 89.41354370117188 45.45676803588867 C 89.41354370117188 51.39208221435547 88.25154113769531 57.14855575561523 85.95981597900391 62.56679534912109 C 83.74595642089844 67.80095672607422 80.57630920410156 72.50202941894531 76.53890228271484 76.5394287109375 C 72.50150299072266 80.57682800292969 67.80043029785156 83.74648284912109 62.56626892089844 85.96034240722656 C 57.14802932739258 88.25206756591797 51.39155578613281 89.41407012939453 45.45676803588867 89.41407012939453 Z" stroke="none"/>
          <path d="M 45.45676803588867 3 C 39.72381210327148 3 34.1639404296875 4.12213134765625 28.93159484863281 6.335227966308594 C 23.87622833251953 8.473472595214844 19.33542633056641 11.53517150878906 15.43529510498047 15.435302734375 C 11.53517150878906 19.33543395996094 8.473464965820312 23.87622833251953 6.335227966308594 28.93160247802734 C 4.122123718261719 34.16394424438477 3 39.72381591796875 3 45.4572868347168 C 3 51.19024658203125 4.122123718261719 56.75011825561523 6.335227966308594 61.98246002197266 C 8.473464965820312 67.03782653808594 11.53517150878906 71.57862854003906 15.43529510498047 75.478759765625 C 19.33542633056641 79.37889099121094 23.87622833251953 82.44058990478516 28.93159484863281 84.57883453369141 C 34.1639404296875 86.79193115234375 39.72381210327148 87.9140625 45.45676803588867 87.9140625 C 51.18972396850586 87.9140625 56.74959564208984 86.79193115234375 61.98194122314453 84.57883453369141 C 67.03730773925781 82.44058990478516 71.57810974121094 79.37889099121094 75.47824096679688 75.478759765625 C 79.37837219238281 71.57862854003906 82.44007110595703 67.03782653808594 84.57830810546875 61.98246002197266 C 86.79141235351562 56.75011825561523 87.91353607177734 51.19024658203125 87.91353607177734 45.4567756652832 C 87.91353607177734 39.72381591796875 86.79141235351562 34.16394424438477 84.57830810546875 28.93160247802734 C 82.44007110595703 23.87622833251953 79.37837219238281 19.33543395996094 75.47824096679688 15.435302734375 C 71.57810974121094 11.53517150878906 67.03730773925781 8.473472595214844 61.98194122314453 6.335227966308594 C 56.74959564208984 4.12213134765625 51.18972396850586 3 45.45676803588867 3 M 45.45676803588867 0 C 70.56185150146484 0 90.91353607177734 20.35169219970703 90.91353607177734 45.4567756652832 L 90.91353607177734 45.4572868347168 C 90.91353607177734 70.5623779296875 70.56185150146484 90.9140625 45.45676803588867 90.9140625 C 20.3516845703125 90.9140625 0 70.5623779296875 0 45.4572868347168 L 0 45.4567756652832 C 0 20.35169219970703 20.3516845703125 0 45.45676803588867 0 Z" stroke="none" fill="#fff"/>
        </g>
      </g>
      <g id="Grupo_1109130" data-name="Grupo 1109130">
        <g id="Trazado_874923" data-name="Trazado 874923" fill="none">
          <path d="M45.457,0A45.457,45.457,0,0,1,90.914,45.457h0A45.457,45.457,0,0,1,0,45.457H0A45.457,45.457,0,0,1,45.457,0Z" stroke="none"/>
          <path d="M 45.45676803588867 3 C 39.72381210327148 3 34.1639404296875 4.12213134765625 28.93159484863281 6.335227966308594 C 23.87622833251953 8.473472595214844 19.33542633056641 11.53517150878906 15.43529510498047 15.435302734375 C 11.53517150878906 19.33543395996094 8.473464965820312 23.87622833251953 6.335227966308594 28.93160247802734 C 4.122123718261719 34.16394424438477 3 39.72381591796875 3 45.4572868347168 C 3 51.19024658203125 4.122123718261719 56.75011825561523 6.335227966308594 61.98246002197266 C 8.473464965820312 67.03782653808594 11.53517150878906 71.57862854003906 15.43529510498047 75.478759765625 C 19.33542633056641 79.37889099121094 23.87622833251953 82.44058990478516 28.93159484863281 84.57883453369141 C 34.1639404296875 86.79193115234375 39.72381210327148 87.9140625 45.45676803588867 87.9140625 C 51.18972396850586 87.9140625 56.74959564208984 86.79193115234375 61.98194122314453 84.57883453369141 C 67.03730773925781 82.44058990478516 71.57810974121094 79.37889099121094 75.47824096679688 75.478759765625 C 79.37837219238281 71.57862854003906 82.44007110595703 67.03782653808594 84.57830810546875 61.98246002197266 C 86.79141235351562 56.75011825561523 87.91353607177734 51.19024658203125 87.91353607177734 45.4567756652832 C 87.91353607177734 39.72381591796875 86.79141235351562 34.16394424438477 84.57830810546875 28.93160247802734 C 82.44007110595703 23.87622833251953 79.37837219238281 19.33543395996094 75.47824096679688 15.435302734375 C 71.57810974121094 11.53517150878906 67.03730773925781 8.473472595214844 61.98194122314453 6.335227966308594 C 56.74959564208984 4.12213134765625 51.18972396850586 3 45.45676803588867 3 M 45.45676803588867 0 C 70.56185150146484 0 90.91353607177734 20.35169219970703 90.91353607177734 45.4567756652832 L 90.91353607177734 45.4572868347168 C 90.91353607177734 70.5623779296875 70.56185150146484 90.9140625 45.45676803588867 90.9140625 C 20.3516845703125 90.9140625 0 70.5623779296875 0 45.4572868347168 L 0 45.4567756652832 C 0 20.35169219970703 20.3516845703125 0 45.45676803588867 0 Z" stroke="none" fill="#fff"/>
        </g>
      </g>
    </g>
    <g id="Grupo_1113093" data-name="Grupo 1113093">
      <g id="Grupo_1109867" data-name="Grupo 1109867" transform="translate(830.249 894.051)">
        <g id="Grupo_1109828" data-name="Grupo 1109828" transform="translate(0.86 1.721)">
          <path id="Trazado_900876" data-name="Trazado 900876" d="M22.887,41v3.127H2.563A1.568,1.568,0,0,1,1,42.563a1.528,1.528,0,0,1,.461-1.1A1.528,1.528,0,0,1,2.563,41Z" transform="translate(-0.216 -10.513)" fill="#7f8e94"/>
          <path id="Trazado_900877" data-name="Trazado 900877" d="M26,41h2.345v3.127H26Z" transform="translate(-5.674 -10.513)" fill="#545c60"/>
          <path id="Trazado_900878" data-name="Trazado 900878" d="M26.014,58.127H2.563A1.568,1.568,0,0,1,1,56.563a1.528,1.528,0,0,1,.461-1.1A1.528,1.528,0,0,1,2.563,55H22.887A3.127,3.127,0,0,0,26.014,58.127Z" transform="translate(-0.216 -13.569)" fill="#7f8e94"/>
          <path id="Trazado_900879" data-name="Trazado 900879" d="M28.345,55H26a3.127,3.127,0,0,0,3.127,3.127h2.345A3.127,3.127,0,0,1,28.345,55Z" transform="translate(-5.674 -13.569)" fill="#545c60"/>
          <path id="Trazado_900880" data-name="Trazado 900880" d="M3,45H23.324v7.817H3Z" transform="translate(-0.653 -11.386)" fill="#02a9f4"/>
          <path id="Trazado_900881" data-name="Trazado 900881" d="M26,45h2.345v7.817H26Z" transform="translate(-5.674 -11.386)" fill="#0377bc"/>
          <path id="Trazado_900882" data-name="Trazado 900882" d="M9.786,27.42C7.973,32.2,5.112,35.636,3.1,35.636a1.54,1.54,0,0,1-.571-.1C.508,34.768.492,29.891,2.485,24.645s5.237-8.88,7.262-8.114,2.032,5.644.039,10.889Z" transform="translate(-0.216 -5.149)" fill="#9e9e9e"/>
          <circle id="Elipse_11522" data-name="Elipse 11522" cx="3.908" cy="3.908" r="3.908" transform="translate(10.946 33.614)" fill="#f5f5f5"/>
          <path id="Trazado_900883" data-name="Trazado 900883" d="M18.673,45a3.882,3.882,0,0,0-1.173.2,3.883,3.883,0,0,1,0,7.42A3.9,3.9,0,1,0,18.673,45Z" transform="translate(-3.818 -11.386)" fill="#cfd8dc"/>
          <path id="Trazado_900884" data-name="Trazado 900884" d="M49.324,11h-17.2A3.127,3.127,0,0,0,29,14.127V45.394a3.127,3.127,0,0,0,3.127,3.127h17.2a3.127,3.127,0,0,0,3.127-3.127V14.127A3.127,3.127,0,0,0,49.324,11Zm-8.6,30.486c-3.885,0-7.035-5.253-7.035-11.725s3.15-11.725,7.035-11.725S47.76,23.288,47.76,29.76,44.61,41.486,40.725,41.486Z" transform="translate(-6.329 -3.963)" fill="#ffdf00"/>
          <path id="Trazado_900885" data-name="Trazado 900885" d="M54.345,11H52a3.127,3.127,0,0,1,3.127,3.127V45.394A3.127,3.127,0,0,1,52,48.521h2.345a3.127,3.127,0,0,0,3.127-3.127V14.127A3.127,3.127,0,0,0,54.345,11Z" transform="translate(-11.35 -3.963)" fill="#fec108"/>
          <path id="Trazado_900886" data-name="Trazado 900886" d="M52.451,8.563a1.575,1.575,0,0,1-1.563,1.563H30.563a1.563,1.563,0,0,1,0-3.127H50.887A1.568,1.568,0,0,1,52.451,8.563Z" transform="translate(-6.329 -3.09)" fill="#9e9e9e"/>
          <path id="Trazado_900887" data-name="Trazado 900887" d="M56.345,7H54a1.563,1.563,0,1,1,0,3.127h2.345a1.563,1.563,0,1,0,0-3.127Z" transform="translate(-11.787 -3.09)" fill="#707070"/>
          <ellipse id="Elipse_11523" data-name="Elipse 11523" cx="7.035" cy="11.725" rx="7.035" ry="11.725" transform="translate(27.361 14.072)" fill="#ff9801"/>
          <path id="Trazado_900888" data-name="Trazado 900888" d="M43.673,20a4.336,4.336,0,0,0-1.173.176c3.326.933,5.863,5.744,5.863,11.549S45.826,42.342,42.5,43.275a4.336,4.336,0,0,0,1.173.176c3.885,0,7.035-5.253,7.035-11.725S47.558,20,43.673,20Z" transform="translate(-9.276 -5.928)" fill="#f57c00"/>
          <path id="Trazado_900889" data-name="Trazado 900889" d="M46.9,7.471a2.345,2.345,0,0,0-2.345-2.345H42.418L37.129,2.1a.783.783,0,1,0-.782,1.357l2.92,1.667H24.232a2.34,2.34,0,0,0-1.243,4.326,3.89,3.89,0,0,0-1.1,2.709V31.7H5.944A20.525,20.525,0,0,0,10.3,24.549a21.533,21.533,0,0,0,1.533-7.4c-.01-2.4-.732-4-2.032-4.492-2.853-1.079-6.387,3.606-8.27,8.566C-.046,25.367-.62,30.133.9,32.216A2.278,2.278,0,0,0,0,34.049a2.345,2.345,0,0,0,1.563,2.2v6.539a2.34,2.34,0,0,0,.782,4.549H42.992A3.913,3.913,0,0,0,46.9,43.429V12.161a3.89,3.89,0,0,0-1.1-2.709A2.339,2.339,0,0,0,46.9,7.471ZM24.232,6.69H44.555a.782.782,0,0,1,0,1.563H24.232a.782.782,0,0,1,0-1.563ZM18.337,42.647a4.66,4.66,0,0,0,0-6.253h3.55v6.253Zm-6.971-6.253a4.66,4.66,0,0,0,0,6.253H3.126V36.394Zm.359,3.127a3.127,3.127,0,1,1,3.127,3.127,3.127,3.127,0,0,1-3.127-3.127Zm10.162-6.253V34.83H2.344a.782.782,0,0,1,0-1.563ZM2.993,21.776c1.911-5.032,4.6-7.71,5.956-7.71,1.094,0,1.316,2,1.321,3.088A19.973,19.973,0,0,1,8.839,24C6.776,29.43,3.8,32.119,2.586,31.657s-1.656-4.452.407-9.881ZM1.563,44.992a.788.788,0,0,1,.782-.782h19.62a3.872,3.872,0,0,0,.723,1.563H2.344a.782.782,0,0,1-.782-.782Zm43.774-1.563a2.345,2.345,0,0,1-2.345,2.345H25.8a2.345,2.345,0,0,1-2.345-2.345V12.161A2.345,2.345,0,0,1,25.8,9.816h17.2a2.345,2.345,0,0,1,2.345,2.345Z" transform="translate(0.003 -1.998)"/>
          <path id="Trazado_900890" data-name="Trazado 900890" d="M41.817,19C37.434,19,34,24.494,34,31.507s3.434,12.507,7.817,12.507,7.817-5.494,7.817-12.507S46.2,19,41.817,19Zm0,23.451c-3.39,0-6.253-5.011-6.253-10.944s2.863-10.944,6.253-10.944,6.253,5.011,6.253,10.944S45.207,42.451,41.817,42.451Z" transform="translate(-7.421 -5.71)"/>
        </g>
        <rect id="Rect치ngulo_402373" data-name="Rect치ngulo 402373" width="50" height="50" transform="translate(-0.05 -0.05)" fill="none"/>
      </g>
      <rect id="Rect치ngulo_402566" data-name="Rect치ngulo 402566" width="58" height="58" transform="translate(826.198 890)" fill="none"/>
    </g>
  </g>
</svg>
