<svg xmlns="http://www.w3.org/2000/svg" xmlns:xlink="http://www.w3.org/1999/xlink" width="108.914" height="108.914" viewBox="0 0 108.914 108.914">
  <defs>
    <filter id="Trazado_874925" x="0" y="0" width="108.914" height="108.914" filterUnits="userSpaceOnUse">
      <feOffset dy="3" input="SourceAlpha"/>
      <feGaussianBlur stdDeviation="3" result="blur"/>
      <feFlood flood-opacity="0.161"/>
      <feComposite operator="in" in2="blur"/>
      <feComposite in="SourceGraphic"/>
    </filter>
  </defs>
  <g id="Grupo_1113097" data-name="Grupo 1113097" transform="translate(5120.249 10740.789)">
    <g id="Grupo_1109131" data-name="Grupo 1109131" transform="translate(-5111.249 -10734.789)">
      <g transform="matrix(1, 0, 0, 1, -9, -6)" filter="url(#Trazado_874925)">
        <g id="Trazado_874925-2" data-name="Trazado 874925" transform="translate(9 6)" fill="#cdd2dc" opacity="0.859">
          <path d="M 45.45676803588867 89.41407012939453 C 39.52198028564453 89.41407012939453 33.76551818847656 88.25206756591797 28.34726715087891 85.96034240722656 C 23.11311721801758 83.74648284912109 18.41204261779785 80.57682800292969 14.37464332580566 76.5394287109375 C 10.33724308013916 72.50202941894531 7.167593002319336 67.80095672607422 4.953730583190918 62.56679534912109 C 2.662005424499512 57.14855575561523 1.500005483627319 51.39208221435547 1.500005483627319 45.45729446411133 C 1.500005483627319 39.52198028564453 2.662005424499512 33.76551818847656 4.953730583190918 28.34726905822754 C 7.167593002319336 23.11310577392578 10.33724308013916 18.41203117370605 14.37464332580566 14.37464332580566 C 18.41204261779785 10.33724403381348 23.11311721801758 7.167593955993652 28.34726715087891 4.953731060028076 C 33.76551818847656 2.662006139755249 39.52198028564453 1.500006198883057 45.45676803588867 1.500006198883057 C 51.39155578613281 1.500006198883057 57.14802932739258 2.662006139755249 62.56626892089844 4.953731060028076 C 67.80043029785156 7.167593955993652 72.50150299072266 10.33724403381348 76.53890228271484 14.37464332580566 C 80.57630920410156 18.41203117370605 83.74595642089844 23.11310577392578 85.95981597900391 28.34726905822754 C 88.25154113769531 33.76551818847656 89.41354370117188 39.52198028564453 89.41354370117188 45.45676803588867 C 89.41354370117188 51.39208221435547 88.25154113769531 57.14855575561523 85.95981597900391 62.56679534912109 C 83.74595642089844 67.80095672607422 80.57630920410156 72.50202941894531 76.53890228271484 76.5394287109375 C 72.50150299072266 80.57682800292969 67.80043029785156 83.74648284912109 62.56626892089844 85.96034240722656 C 57.14802932739258 88.25206756591797 51.39155578613281 89.41407012939453 45.45676803588867 89.41407012939453 Z" stroke="none"/>
          <path d="M 45.45676803588867 3 C 39.72381210327148 3 34.1639404296875 4.12213134765625 28.93159484863281 6.335227966308594 C 23.87622833251953 8.473472595214844 19.33542633056641 11.53517150878906 15.43529510498047 15.435302734375 C 11.53517150878906 19.33543395996094 8.473464965820312 23.87622833251953 6.335227966308594 28.93160247802734 C 4.122123718261719 34.16394424438477 3 39.72381591796875 3 45.4572868347168 C 3 51.19024658203125 4.122123718261719 56.75011825561523 6.335227966308594 61.98246002197266 C 8.473464965820312 67.03782653808594 11.53517150878906 71.57862854003906 15.43529510498047 75.478759765625 C 19.33542633056641 79.37889099121094 23.87622833251953 82.44058990478516 28.93159484863281 84.57883453369141 C 34.1639404296875 86.79193115234375 39.72381210327148 87.9140625 45.45676803588867 87.9140625 C 51.18972396850586 87.9140625 56.74959564208984 86.79193115234375 61.98194122314453 84.57883453369141 C 67.03730773925781 82.44058990478516 71.57810974121094 79.37889099121094 75.47824096679688 75.478759765625 C 79.37837219238281 71.57862854003906 82.44007110595703 67.03782653808594 84.57830810546875 61.98246002197266 C 86.79141235351562 56.75011825561523 87.91353607177734 51.19024658203125 87.91353607177734 45.4567756652832 C 87.91353607177734 39.72381591796875 86.79141235351562 34.16394424438477 84.57830810546875 28.93160247802734 C 82.44007110595703 23.87622833251953 79.37837219238281 19.33543395996094 75.47824096679688 15.435302734375 C 71.57810974121094 11.53517150878906 67.03730773925781 8.473472595214844 61.98194122314453 6.335227966308594 C 56.74959564208984 4.12213134765625 51.18972396850586 3 45.45676803588867 3 M 45.45676803588867 0 C 70.56185150146484 0 90.91353607177734 20.35169219970703 90.91353607177734 45.4567756652832 L 90.91353607177734 45.4572868347168 C 90.91353607177734 70.5623779296875 70.56185150146484 90.9140625 45.45676803588867 90.9140625 C 20.3516845703125 90.9140625 0 70.5623779296875 0 45.4572868347168 L 0 45.4567756652832 C 0 20.35169219970703 20.3516845703125 0 45.45676803588867 0 Z" stroke="none" fill="#fff"/>
        </g>
      </g>
      <g id="Grupo_1109130" data-name="Grupo 1109130">
        <g id="Trazado_874923" data-name="Trazado 874923" fill="none">
          <path d="M45.457,0A45.457,45.457,0,0,1,90.914,45.457h0A45.457,45.457,0,0,1,0,45.457H0A45.457,45.457,0,0,1,45.457,0Z" stroke="none"/>
          <path d="M 45.45676803588867 3 C 39.72381210327148 3 34.1639404296875 4.12213134765625 28.93159484863281 6.335227966308594 C 23.87622833251953 8.473472595214844 19.33542633056641 11.53517150878906 15.43529510498047 15.435302734375 C 11.53517150878906 19.33543395996094 8.473464965820312 23.87622833251953 6.335227966308594 28.93160247802734 C 4.122123718261719 34.16394424438477 3 39.72381591796875 3 45.4572868347168 C 3 51.19024658203125 4.122123718261719 56.75011825561523 6.335227966308594 61.98246002197266 C 8.473464965820312 67.03782653808594 11.53517150878906 71.57862854003906 15.43529510498047 75.478759765625 C 19.33542633056641 79.37889099121094 23.87622833251953 82.44058990478516 28.93159484863281 84.57883453369141 C 34.1639404296875 86.79193115234375 39.72381210327148 87.9140625 45.45676803588867 87.9140625 C 51.18972396850586 87.9140625 56.74959564208984 86.79193115234375 61.98194122314453 84.57883453369141 C 67.03730773925781 82.44058990478516 71.57810974121094 79.37889099121094 75.47824096679688 75.478759765625 C 79.37837219238281 71.57862854003906 82.44007110595703 67.03782653808594 84.57830810546875 61.98246002197266 C 86.79141235351562 56.75011825561523 87.91353607177734 51.19024658203125 87.91353607177734 45.4567756652832 C 87.91353607177734 39.72381591796875 86.79141235351562 34.16394424438477 84.57830810546875 28.93160247802734 C 82.44007110595703 23.87622833251953 79.37837219238281 19.33543395996094 75.47824096679688 15.435302734375 C 71.57810974121094 11.53517150878906 67.03730773925781 8.473472595214844 61.98194122314453 6.335227966308594 C 56.74959564208984 4.12213134765625 51.18972396850586 3 45.45676803588867 3 M 45.45676803588867 0 C 70.56185150146484 0 90.91353607177734 20.35169219970703 90.91353607177734 45.4567756652832 L 90.91353607177734 45.4572868347168 C 90.91353607177734 70.5623779296875 70.56185150146484 90.9140625 45.45676803588867 90.9140625 C 20.3516845703125 90.9140625 0 70.5623779296875 0 45.4572868347168 L 0 45.4567756652832 C 0 20.35169219970703 20.3516845703125 0 45.45676803588867 0 Z" stroke="none" fill="#fff"/>
        </g>
      </g>
    </g>
    <g id="Grupo_1109864" data-name="Grupo 1109864" transform="translate(1471.751)">
      <g id="Grupo_1109853" data-name="Grupo 1109853" transform="translate(-6562 -10713)">
        <path id="Trazado_900939" data-name="Trazado 900939" d="M24.136,193.748V170H16.6v23.748H10v7.539H52.6v-7.539Z" transform="translate(-9.058 -153.979)" fill="#fae196"/>
        <rect id="Rectángulo_402364" data-name="Rectángulo 402364" width="42" height="11" transform="translate(1.125 5.125)" fill="#f5c86e"/>
        <circle id="Elipse_11525" data-name="Elipse 11525" cx="7.066" cy="7.066" r="7.066" transform="translate(4.243 21.865)" fill="#e6e6e6"/>
        <g id="Grupo_1109850" data-name="Grupo 1109850" transform="translate(28.46 0.942)">
          <rect id="Rectángulo_402365" data-name="Rectángulo 402365" width="8" height="4" transform="translate(-0.335 0.183)" fill="#bef07d"/>
          <rect id="Rectángulo_402366" data-name="Rectángulo 402366" width="6" height="4" transform="translate(0.665 15.183)" fill="#bef07d"/>
        </g>
        <rect id="Rectángulo_402367" data-name="Rectángulo 402367" width="8" height="7" transform="translate(28.125 20.125)" fill="#d7d7e6"/>
        <path id="Trazado_900940" data-name="Trazado 900940" d="M308.031,293.77h-4.523L302,290h7.539Z" transform="translate(-273.54 -262.671)" fill="#898998"/>
        <path id="Trazado_900941" data-name="Trazado 900941" d="M325.77,333.77l-1.885,1.414L322,333.77V330h3.77Z" transform="translate(-291.655 -298.901)" fill="#e6e6e6"/>
        <rect id="Rectángulo_402368" data-name="Rectángulo 402368" width="4" height="4" transform="translate(43.125 8.125)" fill="#d7d7e6"/>
        <g id="Grupo_1109851" data-name="Grupo 1109851" transform="translate(0.942 43.538)">
          <rect id="Rectángulo_402369" data-name="Rectángulo 402369" width="6" height="4" transform="translate(0.183 -0.413)" fill="#898998"/>
          <rect id="Rectángulo_402370" data-name="Rectángulo 402370" width="6" height="4" transform="translate(36.183 -0.413)" fill="#898998"/>
        </g>
        <g id="Grupo_1109852" data-name="Grupo 1109852" transform="translate(7.539 43.538)">
          <rect id="Rectángulo_402371" data-name="Rectángulo 402371" width="4" height="4" transform="translate(25.586 -0.413)" fill="#f5c86e"/>
          <rect id="Rectángulo_402372" data-name="Rectángulo 402372" width="4" height="4" transform="translate(-0.414 -0.413)" fill="#f5c86e"/>
        </g>
        <path id="Trazado_900942" data-name="Trazado 900942" d="M47.308,7.539H44.48V4.712a.942.942,0,0,0-.942-.942h-6.6V.942A.942.942,0,0,0,36,0H28.46a.942.942,0,0,0-.942.942V3.77H.942A.942.942,0,0,0,0,4.712V16.021a.942.942,0,0,0,.942.942H6.6v5.5a8.009,8.009,0,0,0,0,12.949v3.417H.942A.942.942,0,0,0,0,39.769v7.539a.942.942,0,0,0,.942.942h42.6a.942.942,0,0,0,.942-.942V39.769a.942.942,0,0,0-.942-.942H16.021V35.4a8.008,8.008,0,0,0,0-12.948V16.963H28.46v1.885a.942.942,0,0,0-.942.942v7.539a1.807,1.807,0,0,0,.075.368l1.5,3.752a.94.94,0,0,0,.31.4v3.016a.943.943,0,0,0,.377.754l1.885,1.414a.942.942,0,0,0,1.131,0l1.885-1.414a.943.943,0,0,0,.377-.754V31.852a.94.94,0,0,0,.31-.4l1.5-3.755a.989.989,0,0,0,.073-.357s0-7.546,0-7.546A.942.942,0,0,0,36,18.848V16.963h7.539a.942.942,0,0,0,.942-.942V13.193h2.827a.942.942,0,0,0,.942-.942V8.481A.942.942,0,0,0,47.308,7.539ZM29.4,1.885h5.654V3.77H29.4ZM5.85,31.707a6.125,6.125,0,0,1,1.876-7.742l2.566,5.046L8.538,34.393A6.078,6.078,0,0,1,5.85,31.707ZM6.6,46.365H1.885V44.48H6.6Zm3.77,0H8.481V44.48h1.885Zm25.633,0H34.114V44.48H36Zm6.6,0H37.884V44.48H42.6Zm0-5.654V42.6H33.172a.942.942,0,0,0-.942.942v2.827H12.251V43.538a.942.942,0,0,0-.942-.942H1.885V40.711H7.539a.942.942,0,0,0,.942-.942V36.423c.114.043.229.084.346.122a7.959,7.959,0,0,0,5.308-.127v3.35a.942.942,0,0,0,.942.942ZM17.13,27.028a6.125,6.125,0,0,1-6.8,7.948l1.754-5.382Zm-.854-1.68-4.554,2.316L9.407,23.112a6.057,6.057,0,0,1,1.9-.307,6.139,6.139,0,0,1,1.9.3A6.077,6.077,0,0,1,16.275,25.348ZM8.481,21.443v-4.48h5.654v4.476c-.114-.043-.229-.084-.346-.122A7.97,7.97,0,0,0,8.481,21.443ZM33.172,34.4l-.942.707-.942-.707V32.041h1.885Zm.681-4.241H30.606l-.754-1.885h4.755Zm1.2-3.77H29.4V20.732h5.654Zm-4.712-7.539V16.963h3.77v1.885ZM42.6,15.078H1.885V5.654H42.6Zm3.77-3.77H44.48V9.424h1.885Z"/>
        <path id="Trazado_900943" data-name="Trazado 900943" d="M40.942,81.885A.942.942,0,1,0,40,80.942.943.943,0,0,0,40.942,81.885Z" transform="translate(-36.23 -72.461)"/>
        <path id="Trazado_900944" data-name="Trazado 900944" d="M80.942,81.885A.942.942,0,1,0,80,80.942.943.943,0,0,0,80.942,81.885Z" transform="translate(-72.461 -72.461)"/>
        <path id="Trazado_900945" data-name="Trazado 900945" d="M120.942,81.885a.942.942,0,1,0-.942-.942A.943.943,0,0,0,120.942,81.885Z" transform="translate(-108.691 -72.461)"/>
        <path id="Trazado_900946" data-name="Trazado 900946" d="M40.942,121.885a.942.942,0,1,0-.942-.942A.944.944,0,0,0,40.942,121.885Z" transform="translate(-36.23 -108.691)"/>
        <path id="Trazado_900947" data-name="Trazado 900947" d="M80.942,121.885h3.77a.942.942,0,0,0,0-1.885h-3.77a.942.942,0,0,0,0,1.885Z" transform="translate(-72.461 -108.691)"/>
        <circle id="Elipse_11526" data-name="Elipse 11526" cx="1" cy="1" r="1" transform="translate(31.125 22.125)"/>
      </g>
      <rect id="Rectángulo_402374" data-name="Rectángulo 402374" width="58" height="58" transform="translate(-6567 -10718)" fill="none"/>
    </g>
  </g>
</svg>
