<svg xmlns="http://www.w3.org/2000/svg" xmlns:xlink="http://www.w3.org/1999/xlink" width="108.914" height="108.914" viewBox="0 0 108.914 108.914">
  <defs>
    <filter id="Trazado_874925" x="0" y="0" width="108.914" height="108.914" filterUnits="userSpaceOnUse">
      <feOffset dy="3" input="SourceAlpha"/>
      <feGaussianBlur stdDeviation="3" result="blur"/>
      <feFlood flood-opacity="0.161"/>
      <feComposite operator="in" in2="blur"/>
      <feComposite in="SourceGraphic"/>
    </filter>
  </defs>
  <g id="Grupo_1113099" data-name="Grupo 1113099" transform="translate(4475.249 10740.789)">
    <g id="Grupo_1109834" data-name="Grupo 1109834" transform="translate(-4466.249 -10734.789)">
      <g transform="matrix(1, 0, 0, 1, -9, -6)" filter="url(#Trazado_874925)">
        <g id="Trazado_874925-2" data-name="Trazado 874925" transform="translate(9 6)" fill="#cdd2dc" opacity="0.859">
          <path d="M 45.45676803588867 89.41407012939453 C 39.52198028564453 89.41407012939453 33.76551818847656 88.25206756591797 28.34726715087891 85.96034240722656 C 23.11311721801758 83.74648284912109 18.41204261779785 80.57682800292969 14.37464332580566 76.5394287109375 C 10.33724308013916 72.50202941894531 7.167593002319336 67.80095672607422 4.953730583190918 62.56679534912109 C 2.662005424499512 57.14855575561523 1.500005483627319 51.39208221435547 1.500005483627319 45.45729446411133 C 1.500005483627319 39.52198028564453 2.662005424499512 33.76551818847656 4.953730583190918 28.34726905822754 C 7.167593002319336 23.11310577392578 10.33724308013916 18.41203117370605 14.37464332580566 14.37464332580566 C 18.41204261779785 10.33724403381348 23.11311721801758 7.167593955993652 28.34726715087891 4.953731060028076 C 33.76551818847656 2.662006139755249 39.52198028564453 1.500006198883057 45.45676803588867 1.500006198883057 C 51.39155578613281 1.500006198883057 57.14802932739258 2.662006139755249 62.56626892089844 4.953731060028076 C 67.80043029785156 7.167593955993652 72.50150299072266 10.33724403381348 76.53890228271484 14.37464332580566 C 80.57630920410156 18.41203117370605 83.74595642089844 23.11310577392578 85.95981597900391 28.34726905822754 C 88.25154113769531 33.76551818847656 89.41354370117188 39.52198028564453 89.41354370117188 45.45676803588867 C 89.41354370117188 51.39208221435547 88.25154113769531 57.14855575561523 85.95981597900391 62.56679534912109 C 83.74595642089844 67.80095672607422 80.57630920410156 72.50202941894531 76.53890228271484 76.5394287109375 C 72.50150299072266 80.57682800292969 67.80043029785156 83.74648284912109 62.56626892089844 85.96034240722656 C 57.14802932739258 88.25206756591797 51.39155578613281 89.41407012939453 45.45676803588867 89.41407012939453 Z" stroke="none"/>
          <path d="M 45.45676803588867 3 C 39.72381210327148 3 34.1639404296875 4.12213134765625 28.93159484863281 6.335227966308594 C 23.87622833251953 8.473472595214844 19.33542633056641 11.53517150878906 15.43529510498047 15.435302734375 C 11.53517150878906 19.33543395996094 8.473464965820312 23.87622833251953 6.335227966308594 28.93160247802734 C 4.122123718261719 34.16394424438477 3 39.72381591796875 3 45.4572868347168 C 3 51.19024658203125 4.122123718261719 56.75011825561523 6.335227966308594 61.98246002197266 C 8.473464965820312 67.03782653808594 11.53517150878906 71.57862854003906 15.43529510498047 75.478759765625 C 19.33542633056641 79.37889099121094 23.87622833251953 82.44058990478516 28.93159484863281 84.57883453369141 C 34.1639404296875 86.79193115234375 39.72381210327148 87.9140625 45.45676803588867 87.9140625 C 51.18972396850586 87.9140625 56.74959564208984 86.79193115234375 61.98194122314453 84.57883453369141 C 67.03730773925781 82.44058990478516 71.57810974121094 79.37889099121094 75.47824096679688 75.478759765625 C 79.37837219238281 71.57862854003906 82.44007110595703 67.03782653808594 84.57830810546875 61.98246002197266 C 86.79141235351562 56.75011825561523 87.91353607177734 51.19024658203125 87.91353607177734 45.4567756652832 C 87.91353607177734 39.72381591796875 86.79141235351562 34.16394424438477 84.57830810546875 28.93160247802734 C 82.44007110595703 23.87622833251953 79.37837219238281 19.33543395996094 75.47824096679688 15.435302734375 C 71.57810974121094 11.53517150878906 67.03730773925781 8.473472595214844 61.98194122314453 6.335227966308594 C 56.74959564208984 4.12213134765625 51.18972396850586 3 45.45676803588867 3 M 45.45676803588867 0 C 70.56185150146484 0 90.91353607177734 20.35169219970703 90.91353607177734 45.4567756652832 L 90.91353607177734 45.4572868347168 C 90.91353607177734 70.5623779296875 70.56185150146484 90.9140625 45.45676803588867 90.9140625 C 20.3516845703125 90.9140625 0 70.5623779296875 0 45.4572868347168 L 0 45.4567756652832 C 0 20.35169219970703 20.3516845703125 0 45.45676803588867 0 Z" stroke="none" fill="#fff"/>
        </g>
      </g>
      <g id="Grupo_1109130" data-name="Grupo 1109130">
        <g id="Trazado_874923" data-name="Trazado 874923" fill="none">
          <path d="M45.457,0A45.457,45.457,0,0,1,90.914,45.457h0A45.457,45.457,0,0,1,0,45.457H0A45.457,45.457,0,0,1,45.457,0Z" stroke="none"/>
          <path d="M 45.45676803588867 3 C 39.72381210327148 3 34.1639404296875 4.12213134765625 28.93159484863281 6.335227966308594 C 23.87622833251953 8.473472595214844 19.33542633056641 11.53517150878906 15.43529510498047 15.435302734375 C 11.53517150878906 19.33543395996094 8.473464965820312 23.87622833251953 6.335227966308594 28.93160247802734 C 4.122123718261719 34.16394424438477 3 39.72381591796875 3 45.4572868347168 C 3 51.19024658203125 4.122123718261719 56.75011825561523 6.335227966308594 61.98246002197266 C 8.473464965820312 67.03782653808594 11.53517150878906 71.57862854003906 15.43529510498047 75.478759765625 C 19.33542633056641 79.37889099121094 23.87622833251953 82.44058990478516 28.93159484863281 84.57883453369141 C 34.1639404296875 86.79193115234375 39.72381210327148 87.9140625 45.45676803588867 87.9140625 C 51.18972396850586 87.9140625 56.74959564208984 86.79193115234375 61.98194122314453 84.57883453369141 C 67.03730773925781 82.44058990478516 71.57810974121094 79.37889099121094 75.47824096679688 75.478759765625 C 79.37837219238281 71.57862854003906 82.44007110595703 67.03782653808594 84.57830810546875 61.98246002197266 C 86.79141235351562 56.75011825561523 87.91353607177734 51.19024658203125 87.91353607177734 45.4567756652832 C 87.91353607177734 39.72381591796875 86.79141235351562 34.16394424438477 84.57830810546875 28.93160247802734 C 82.44007110595703 23.87622833251953 79.37837219238281 19.33543395996094 75.47824096679688 15.435302734375 C 71.57810974121094 11.53517150878906 67.03730773925781 8.473472595214844 61.98194122314453 6.335227966308594 C 56.74959564208984 4.12213134765625 51.18972396850586 3 45.45676803588867 3 M 45.45676803588867 0 C 70.56185150146484 0 90.91353607177734 20.35169219970703 90.91353607177734 45.4567756652832 L 90.91353607177734 45.4572868347168 C 90.91353607177734 70.5623779296875 70.56185150146484 90.9140625 45.45676803588867 90.9140625 C 20.3516845703125 90.9140625 0 70.5623779296875 0 45.4572868347168 L 0 45.4567756652832 C 0 20.35169219970703 20.3516845703125 0 45.45676803588867 0 Z" stroke="none" fill="#fff"/>
        </g>
      </g>
    </g>
    <g id="Grupo_1109876" data-name="Grupo 1109876" transform="translate(1447.751)">
      <g id="Grupo_1109875" data-name="Grupo 1109875" transform="translate(-5892.5 -10716.881)">
        <g id="Grupo_1109873" data-name="Grupo 1109873" transform="translate(0.714 4.142)">
          <g id="Grupo_1109870" data-name="Grupo 1109870" transform="translate(18.308)">
            <path id="Trazado_900984" data-name="Trazado 900984" d="M203.3,11.664l-3.143,7.764a2.652,2.652,0,0,0,2.458,3.647h2.224v5.667a1.175,1.175,0,0,0,2.214.551l3.423-6.454a2.652,2.652,0,0,0-2.342-3.894h-2.568v-6.84A1.175,1.175,0,0,0,203.3,11.664Z" transform="translate(-199.962 -10.929)" fill="#fee97d"/>
            <g id="Grupo_1109869" data-name="Grupo 1109869" transform="translate(0 0.001)">
              <path id="Trazado_900985" data-name="Trazado 900985" d="M202.217,19.434l3.143-7.764a1.334,1.334,0,0,1,.065-.135,1.181,1.181,0,0,0-2.123.135l-3.143,7.764a2.652,2.652,0,0,0,2.458,3.647h2.059a2.652,2.652,0,0,1-2.458-3.647Z" transform="translate(-199.962 -10.934)" fill="#fece85"/>
              <path id="Trazado_900986" data-name="Trazado 900986" d="M253.3,144.287V138.62h-2.059v5.667a1.175,1.175,0,0,0,2.2.573A1.183,1.183,0,0,1,253.3,144.287Z" transform="translate(-246.366 -126.474)" fill="#fece85"/>
            </g>
          </g>
          <g id="Grupo_1109871" data-name="Grupo 1109871" transform="translate(0 5.854)">
            <path id="Trazado_900987" data-name="Trazado 900987" d="M258.218,119.066v9.887a23.638,23.638,0,0,1-23.639,23.639H234.5l-2.169-8.754L234.5,137.4a8.457,8.457,0,0,0,8.531-8.447v-9.887l7.6-3.11Z" transform="translate(-210.94 -111.819)" fill="#fd8087"/>
            <path id="Trazado_900988" data-name="Trazado 900988" d="M360,75.564v4.153H344.8V75.564a3.093,3.093,0,0,1,3.093-3.093h9A3.093,3.093,0,0,1,360,75.564Z" transform="translate(-312.719 -72.471)" fill="#7a6d79"/>
            <path id="Trazado_900989" data-name="Trazado 900989" d="M7.505,119.062v9.887a23.638,23.638,0,0,0,23.639,23.639h.084V137.4a8.457,8.457,0,0,1-8.531-8.447v-9.887l-7.6-3.11Z" transform="translate(-7.505 -111.815)" fill="#6c7fd8"/>
            <path id="Trazado_900990" data-name="Trazado 900990" d="M7.505,75.56v4.153H22.7V75.56A3.093,3.093,0,0,0,19.6,72.467h-9A3.093,3.093,0,0,0,7.505,75.56Z" transform="translate(-7.505 -72.467)" fill="#7a6d79"/>
            <path id="Trazado_900991" data-name="Trazado 900991" d="M288.12,130.351v11.627a8.6,8.6,0,0,1-10.656,8.2,8.461,8.461,0,0,0,6.406-8.2v-9.887Z" transform="translate(-251.784 -124.845)" fill="#fe646f"/>
            <path id="Trazado_900992" data-name="Trazado 900992" d="M352.148,72.471a3.093,3.093,0,0,0-3.093,3.093v4.153H344.8V75.564a3.093,3.093,0,0,1,3.093-3.093Z" transform="translate(-312.719 -72.471)" fill="#685e68"/>
            <path id="Trazado_900993" data-name="Trazado 900993" d="M31.227,165.249v.363h-.084A23.638,23.638,0,0,1,7.5,141.974v-9.887l4.25-1.74v11.627a23.653,23.653,0,0,0,19.472,23.275Z" transform="translate(-7.505 -124.841)" fill="#4f66d0"/>
            <path id="Trazado_900994" data-name="Trazado 900994" d="M14.848,72.467a3.093,3.093,0,0,0-3.093,3.093v4.153H7.5V75.56A3.093,3.093,0,0,1,10.6,72.467Z" transform="translate(-7.505 -72.467)" fill="#685e68"/>
          </g>
          <g id="Grupo_1109872" data-name="Grupo 1109872" transform="translate(3.672 16.083)">
            <path id="Trazado_900995" data-name="Trazado 900995" d="M387.1,182.594h-1.078v-1.078a1.517,1.517,0,1,0-3.035,0v1.078H381.91a1.517,1.517,0,1,0,0,3.035h1.078v1.078a1.517,1.517,0,1,0,3.035,0v-1.078H387.1a1.517,1.517,0,1,0,0-3.035Z" transform="translate(-348.593 -179.998)" fill="#eaf6ff"/>
            <path id="Trazado_900996" data-name="Trazado 900996" d="M47.618,207.287a1.517,1.517,0,0,0,0,3.035H52.81a1.517,1.517,0,0,0,0-3.035Z" transform="translate(-46.101 -204.691)" fill="#eaf6ff"/>
          </g>
        </g>
        <g id="Grupo_1109874" data-name="Grupo 1109874" transform="translate(0 3.428)">
          <path id="Trazado_900997" data-name="Trazado 900997" d="M195.852,17h1.51v4.953a1.863,1.863,0,0,0,1.433,1.833,1.958,1.958,0,0,0,.473.059,1.859,1.859,0,0,0,1.652-1.007l1.162-2.191a.713.713,0,1,0-1.26-.669l-1.162,2.191a.462.462,0,0,1-.871-.216V16.289a.713.713,0,0,0-.713-.713h-2.223a1.939,1.939,0,0,1-1.8-2.666L197.2,5.145a.462.462,0,0,1,.89.173v6.84a.713.713,0,0,0,.713.713h2.568a1.938,1.938,0,0,1,1.712,2.847l-.929,1.752a.713.713,0,0,0,1.261.669l.929-1.752a3.365,3.365,0,0,0-2.972-4.942h-1.855V5.319a1.847,1.847,0,0,0-1.527-1.854,1.869,1.869,0,0,0-2.113,1.145l-3.143,7.764A3.365,3.365,0,0,0,195.852,17Z" transform="translate(-174.176 -3.428)"/>
          <path id="Trazado_900998" data-name="Trazado 900998" d="M44.9,64.972h-9a3.811,3.811,0,0,0-3.807,3.806V82.819a7.743,7.743,0,0,1-7.811,7.733,7.812,7.812,0,0,1-7.657-7.84V68.778a3.811,3.811,0,0,0-3.807-3.806h-9A3.811,3.811,0,0,0,0,68.778V82.819a24.284,24.284,0,0,0,6.126,16.15.713.713,0,1,0,1.067-.948,22.859,22.859,0,0,1-5.765-15.2V73.645H15.192v9.066a9.257,9.257,0,0,0,8.364,9.233v13.784A22.853,22.853,0,0,1,9.15,99.979a.713.713,0,0,0-.948,1.067,24.353,24.353,0,0,0,40.5-18.227V68.778A3.811,3.811,0,0,0,44.9,64.972ZM1.427,72.218v-3.44A2.382,2.382,0,0,1,3.807,66.4h9a2.382,2.382,0,0,1,2.38,2.379v3.44ZM35.893,66.4h9a2.382,2.382,0,0,1,2.38,2.379v3.44H33.513v-3.44A2.382,2.382,0,0,1,35.893,66.4Zm4.67,32.63a22.765,22.765,0,0,1-15.58,6.705V91.957a9.171,9.171,0,0,0,8.531-9.138V73.645H47.278v9.174A22.772,22.772,0,0,1,40.563,99.029Z" transform="translate(0 -59.118)"/>
          <path id="Trazado_900999" data-name="Trazado 900999" d="M380.317,175.095h-.365v-.365a2.231,2.231,0,1,0-4.462,0v.365h-.365a2.231,2.231,0,0,0,0,4.462h.365v.365a2.231,2.231,0,1,0,4.462,0v-.365h.365a2.231,2.231,0,1,0,0-4.462Zm0,3.035h-1.078a.713.713,0,0,0-.713.713v1.078a.8.8,0,0,1-1.608,0v-1.078a.713.713,0,0,0-.713-.713h-1.078a.8.8,0,0,1,0-1.608H376.2a.713.713,0,0,0,.713-.713V174.73a.8.8,0,1,1,1.608,0v1.078a.713.713,0,0,0,.713.713h1.078a.8.8,0,0,1,0,1.608Z" transform="translate(-337.422 -156.416)"/>
          <path id="Trazado_901000" data-name="Trazado 901000" d="M48.255,202.018a2.233,2.233,0,0,0-2.231-2.231H40.832a2.231,2.231,0,1,0,0,4.462h5.192A2.233,2.233,0,0,0,48.255,202.018Zm-8.227,0a.8.8,0,0,1,.8-.8h5.192a.8.8,0,0,1,0,1.608H40.832A.8.8,0,0,1,40.028,202.018Z" transform="translate(-34.929 -181.108)"/>
        </g>
      </g>
      <rect id="Rectángulo_402376" data-name="Rectángulo 402376" width="58" height="58" transform="translate(-5897 -10718)" fill="none"/>
    </g>
  </g>
</svg>
