<svg xmlns="http://www.w3.org/2000/svg" width="76" height="76" viewBox="0 0 76 76">
  <g id="Grupo_1113092" data-name="Grupo 1113092" transform="translate(-333.198 -7845)">
    <rect id="Rectángulo_402563" data-name="Rectángulo 402563" width="76" height="76" transform="translate(333.198 7845)" fill="none"/>
    <g id="Grupo_1113091" data-name="Grupo 1113091" transform="translate(340.436 7851.333)">
      <path id="Trazado_903474" data-name="Trazado 903474" d="M66.809,60.79h-.975V45.051a1.293,1.293,0,0,0-.576-1.076L52.483,35.461a1.293,1.293,0,0,0-2.01,1.077v6.1L39.711,35.462A1.293,1.293,0,0,0,37.7,36.538v6.1L27.46,35.811,26.389,21.864A1.293,1.293,0,0,0,25.1,20.669H14.562a1.293,1.293,0,0,0-1.293,1.258L12.186,60.79h-1.01a3.03,3.03,0,0,0-3.027,3.027v.149a3.03,3.03,0,0,0,3.027,3.026H66.809a3.03,3.03,0,0,0,3.027-3.026v-.149a3.03,3.03,0,0,0-3.027-3.027Z" transform="translate(-8.149 -3.659)"/>
      <path id="Trazado_903475" data-name="Trazado 903475" d="M61.752,45.159V60.2H13.27L14.317,22.67H22.4l1.022,13.385a1.313,1.313,0,0,0,.582.97L36.78,45.547a1.3,1.3,0,0,0,2-1.086V38.369l10.759,7.164a1.27,1.27,0,0,0,1.332.065,1.293,1.293,0,0,0,.685-1.138V38.369Z" transform="translate(-6.648 -3.072)" fill="#9e9e9e"/>
      <path id="Trazado_903476" data-name="Trazado 903476" d="M66.664,54.284a.442.442,0,0,1-.441.44H10.59a.442.442,0,0,1-.441-.44v-.149a.442.442,0,0,1,.441-.441H66.223a.442.442,0,0,1,.441.441Z" transform="translate(-7.563 6.024)" fill="#9e9e9e"/>
      <path id="Trazado_903477" data-name="Trazado 903477" d="M15.909,23.143a1.293,1.293,0,0,0,1.778-.427c.733-1.2,4.474-6.787,10.9-8.345A19.915,19.915,0,0,0,42.267,28.534a17.5,17.5,0,0,0,4.177.51,17.871,17.871,0,0,0,5.726-.958,21.726,21.726,0,0,0,8.46-5.342,1.293,1.293,0,0,0-.614-2.116,16.533,16.533,0,0,1-5.439-2.8l-.441-.4a32.471,32.471,0,0,1-2.892-3.264c-2.311-2.867-4.5-5.574-10.179-6.479a13.837,13.837,0,0,0-12,3.939C21.2,12.979,16.708,19.355,15.484,21.36a1.293,1.293,0,0,0,.425,1.783Z" transform="translate(-6.055 -7.515)"/>
      <path id="Trazado_903478" data-name="Trazado 903478" d="M53.621,21.784a19.4,19.4,0,0,1-5.871,3.272,14.983,14.983,0,0,1-8.457.388c-5.768-1.41-10.746-7.4-11.742-12.04,6.763-.375,11.458,4.125,12.777,5.561a1.3,1.3,0,0,0,1.823.078,1.278,1.278,0,0,0,.078-1.823,19.893,19.893,0,0,0-12.272-6.362,11.034,11.034,0,0,1,7.113-1.2c4.694.75,6.4,2.871,8.574,5.548a33.985,33.985,0,0,0,3.142,3.53l.491.453a17.123,17.123,0,0,0,4.345,2.6Z" transform="translate(-2.461 -6.932)" fill="#00c853"/>
      <path id="Trazado_903479" data-name="Trazado 903479" d="M53.621,20.9a19.4,19.4,0,0,1-5.871,3.272,14.983,14.983,0,0,1-8.457.388c-5.768-1.41-10.746-7.4-11.742-12.04C27.55,12.52,40.378,28.258,53.621,20.9Z" transform="translate(-2.461 -6.048)" fill="#69f0ae"/>
      <rect id="Rectángulo_402560" data-name="Rectángulo 402560" width="6.845" height="8.448" rx="1" transform="translate(46.582 43.818)"/>
      <path id="Trazado_903480" data-name="Trazado 903480" d="M46.17,43.4h1.672v3.276H46.17Z" transform="translate(2.998 3.005)" fill="#bdbdbd"/>
      <rect id="Rectángulo_402561" data-name="Rectángulo 402561" width="6.844" height="8.448" rx="1" transform="translate(33.809 43.818)"/>
      <path id="Trazado_903481" data-name="Trazado 903481" d="M36.293,43.4h1.671v3.276H36.293Z" transform="translate(0.103 3.005)" fill="#bdbdbd"/>
      <rect id="Rectángulo_402562" data-name="Rectángulo 402562" width="6.844" height="8.448" rx="1" transform="translate(21.035 43.818)"/>
      <g id="Grupo_1113090" data-name="Grupo 1113090" transform="translate(6.622 19.598)">
        <path id="Trazado_903482" data-name="Trazado 903482" d="M26.415,43.4h1.671v3.276H26.415Z" transform="translate(-9.416 -16.592)" fill="#bdbdbd"/>
        <path id="Trazado_903483" data-name="Trazado 903483" d="M61.752,58.983V60.2H13.27L14.317,22.67h1.5l-.661,32.539a3.7,3.7,0,0,0,3.7,3.774Z" transform="translate(-13.27 -22.67)" fill="#bdbdbd"/>
      </g>
    </g>
  </g>
</svg>
