<svg xmlns="http://www.w3.org/2000/svg" width="85" height="85" viewBox="0 0 85 85">
  <g id="Grupo_1113087" data-name="Grupo 1113087" transform="translate(-510.198 -5176)">
    <rect id="Rectángulo_402556" data-name="Rectángulo 402556" width="85" height="85" transform="translate(510.198 5176)" fill="none"/>
    <g id="Grupo_1113079" data-name="Grupo 1113079" transform="translate(511.698 5177.5)">
      <g id="Grupo_1113077" data-name="Grupo 1113077" transform="translate(7.591 7.5)">
        <path id="Trazado_903400" data-name="Trazado 903400" d="M172.585,29.254,154.257,11.224A4.138,4.138,0,0,1,150.533,7.5L125,30.693l27.967,29.412L176.16,33.127A4.013,4.013,0,0,1,172.585,29.254Z" transform="translate(-109.251 -7.5)" fill="#7ca1b1"/>
        <path id="Trazado_903401" data-name="Trazado 903401" d="M76.622,13.724,53.458,36.889l2.894,2.894L88.635,7.5A22.284,22.284,0,0,0,76.622,13.724Z" transform="translate(-47.353 -7.5)" fill="#8ebac5"/>
        <path id="Trazado_903402" data-name="Trazado 903402" d="M267.921,232.776l23.193-23.193a22.16,22.16,0,0,0,6.2-11.984l-32.283,32.283Z" transform="translate(-230.401 -171.972)" fill="#8ebac5"/>
        <path id="Trazado_903403" data-name="Trazado 903403" d="M215.779,49.131l22.994-22.994a.539.539,0,0,0,.15-.477A22.235,22.235,0,0,0,221.07,7.806a.539.539,0,0,0-.477.15L197.6,30.951Z" transform="translate(-172.063 -7.758)" fill="#8ebac5"/>
        <path id="Trazado_903404" data-name="Trazado 903404" d="M48.463,201.448a3.737,3.737,0,0,1,3.425-3.724,22.233,22.233,0,0,0-18.18-18.18,3.737,3.737,0,0,1-7.447,0A22.235,22.235,0,0,0,8.182,197.171a.545.545,0,0,0,.422.634,3.737,3.737,0,0,1,0,7.286.545.545,0,0,0-.422.634,22.238,22.238,0,0,0,17.526,17.526.545.545,0,0,0,.634-.422,3.737,3.737,0,0,1,7.286,0,.545.545,0,0,0,.634.422,22.235,22.235,0,0,0,17.626-18.079A3.737,3.737,0,0,1,48.463,201.448Z" transform="translate(-8.172 -156.352)" fill="#a8d3d8"/>
        <path id="Trazado_903405" data-name="Trazado 903405" d="M121.387,285.2c0,4.89-3.342,7.933-8.232,7.933-3.489,0-6.506-1.1-7.949-4.03a8.857,8.857,0,0,1,11.853-11.853C119.991,278.694,121.387,281.711,121.387,285.2Z" transform="translate(-91.342 -240.103)" fill="#7ca1b1"/>
        <path id="Trazado_903406" data-name="Trazado 903406" d="M122.866,283.059a8.857,8.857,0,0,1-11.853,11.853,8.855,8.855,0,1,0,11.853-11.853Z" transform="translate(-97.149 -245.911)" fill="#678d98"/>
      </g>
      <g id="Grupo_1113078" data-name="Grupo 1113078" transform="translate(7.5 7.5)">
        <path id="Trazado_903407" data-name="Trazado 903407" d="M11.958,187.7a21.936,21.936,0,0,1,1.738-1.956A22.157,22.157,0,0,1,25.68,179.55a3.736,3.736,0,0,0,7.447,0,22.229,22.229,0,0,1,18.179,18.179,3.736,3.736,0,0,0,0,7.447,22.23,22.23,0,0,1-18.179,18.18,3.736,3.736,0,0,0-7.447,0A22.235,22.235,0,0,1,7.5,205.176a3.736,3.736,0,0,0,0-7.447A22.014,22.014,0,0,1,9.443,191.7" transform="translate(-7.5 -156.356)" fill="none" stroke="#000" stroke-linecap="round" stroke-linejoin="round" stroke-miterlimit="10" stroke-width="2"/>
        <line id="Línea_563" data-name="Línea 563" x1="11.405" y2="11.405" transform="translate(37.612 49.399)" fill="none" stroke="#000" stroke-linecap="round" stroke-linejoin="round" stroke-miterlimit="10" stroke-width="2"/>
        <path id="Trazado_903408" data-name="Trazado 903408" d="M395.85,194.139l8.451-8.451a22.158,22.158,0,0,0,6.2-11.985,3.737,3.737,0,0,1-3.425-3.723" transform="translate(-343.497 -148.076)" fill="none" stroke="#000" stroke-linecap="round" stroke-linejoin="round" stroke-miterlimit="10" stroke-width="2"/>
        <path id="Trazado_903409" data-name="Trazado 903409" d="M472.436,73.785a22.133,22.133,0,0,0-5-10.685" transform="translate(-405.436 -55.605)" fill="none" stroke="#000" stroke-linecap="round" stroke-linejoin="round" stroke-miterlimit="10" stroke-width="2"/>
        <path id="Trazado_903410" data-name="Trazado 903410" d="M379.4,11.746A22.146,22.146,0,0,0,369.64,7.5" transform="translate(-320.82 -7.5)" fill="none" stroke="#000" stroke-linecap="round" stroke-linejoin="round" stroke-miterlimit="10" stroke-width="2"/>
        <path id="Trazado_903411" data-name="Trazado 903411" d="M53.458,36.889,76.651,13.7A22.16,22.16,0,0,1,88.635,7.5a3.737,3.737,0,0,0,3.6,3.423" transform="translate(-47.262 -7.5)" fill="none" stroke="#000" stroke-linecap="round" stroke-linejoin="round" stroke-miterlimit="10" stroke-width="2"/>
        <line id="Línea_564" data-name="Línea 564" y1="22.989" x2="22.989" transform="translate(18.18 0.204)" fill="none" stroke="#000" stroke-linecap="round" stroke-linejoin="round" stroke-miterlimit="10" stroke-width="2"/>
        <line id="Línea_565" data-name="Línea 565" x1="5.708" y2="5.708" transform="translate(25.627 17.486)" fill="none" stroke="#000" stroke-linecap="round" stroke-linejoin="round" stroke-miterlimit="10" stroke-width="2"/>
        <line id="Línea_566" data-name="Línea 566" x1="14.148" y2="14.15" transform="translate(34.671 0)" fill="none" stroke="#000" stroke-linecap="round" stroke-linejoin="round" stroke-miterlimit="10" stroke-width="2"/>
        <line id="Línea_567" data-name="Línea 567" y1="23.193" x2="23.193" transform="translate(43.807 18.18)" fill="none" stroke="#000" stroke-linecap="round" stroke-linejoin="round" stroke-miterlimit="10" stroke-width="2"/>
        <line id="Línea_568" data-name="Línea 568" x1="23.193" y2="23.193" transform="translate(43.807 25.627)" fill="none" stroke="#000" stroke-linecap="round" stroke-linejoin="round" stroke-miterlimit="10" stroke-width="2"/>
        <circle id="Elipse_11553" data-name="Elipse 11553" cx="8.854" cy="8.854" r="8.854" transform="translate(13.049 36.243)" fill="none" stroke="#000" stroke-linecap="round" stroke-linejoin="round" stroke-miterlimit="10" stroke-width="2"/>
      </g>
    </g>
  </g>
</svg>
