<svg xmlns="http://www.w3.org/2000/svg" width="85" height="85" viewBox="0 0 85 85">
  <g id="Grupo_1113086" data-name="Grupo 1113086" transform="translate(-757.198 -5176)">
    <rect id="Rectángulo_402557" data-name="Rectángulo 402557" width="85" height="85" transform="translate(757.198 5176)" fill="none"/>
    <g id="Grupo_1113080" data-name="Grupo 1113080" transform="translate(765.198 5182.993)">
      <circle id="Elipse_11554" data-name="Elipse 11554" cx="16.649" cy="16.649" r="16.649" transform="translate(12.659 2.109)" fill="#a9b6bd"/>
      <path id="Trazado_903412" data-name="Trazado 903412" d="M44.411,10H40.262a16.611,16.611,0,0,1,0,15.539h4.149a2.22,2.22,0,0,0,2.22-2.22V12.22A2.22,2.22,0,0,0,44.411,10Z" transform="translate(3.765 0.988)" fill="#bac5ca"/>
      <path id="Trazado_903413" data-name="Trazado 903413" d="M7,58.088,14.769,37H43.627L51.4,58.088Z" transform="translate(0.11 3.956)" fill="#a9b6bd"/>
      <path id="Trazado_903414" data-name="Trazado 903414" d="M32.1,41.528a6.659,6.659,0,1,1-8.879,0Z" transform="translate(1.648 4.453)" fill="#b3bec4"/>
      <path id="Trazado_903415" data-name="Trazado 903415" d="M32.1,41.528a6.659,6.659,0,1,1-8.879,0Z" transform="translate(1.648 4.453)" fill="#d1d8dc"/>
      <path id="Trazado_903416" data-name="Trazado 903416" d="M30.429,55.124V54.97a17.537,17.537,0,0,1,1.73-8.11,4.352,4.352,0,0,0,.489-2.013v-.93A7.718,7.718,0,0,1,34.313,39.3a8.324,8.324,0,0,0,1.665-5v-.161A19.84,19.84,0,0,1,38.8,24.283a12.209,12.209,0,1,0-21.028.266,18.424,18.424,0,0,1,2.664,9.59v1.726a4.063,4.063,0,0,0,1.8,3.523,3.774,3.774,0,0,1,1.518,3.15l-.017,2.38a4.25,4.25,0,0,0,.482,2,17.692,17.692,0,0,1,1.773,8.2,1.931,1.931,0,0,0,1.931,1.937H28.5a1.931,1.931,0,0,0,1.931-1.931Z" transform="translate(1.099 0.549)" fill="#f7c244"/>
      <path id="Trazado_903417" data-name="Trazado 903417" d="M30.429,55.124V54.97a17.537,17.537,0,0,1,1.73-8.11,4.352,4.352,0,0,0,.489-2.013v-.93A7.718,7.718,0,0,1,34.313,39.3a8.324,8.324,0,0,0,1.665-5v-.161A19.84,19.84,0,0,1,38.8,24.283a12.209,12.209,0,1,0-21.028.266,18.424,18.424,0,0,1,2.664,9.59v1.726a4.063,4.063,0,0,0,1.8,3.523,3.774,3.774,0,0,1,1.518,3.15l-.017,2.38a4.25,4.25,0,0,0,.482,2,17.692,17.692,0,0,1,1.773,8.2,1.931,1.931,0,0,0,1.931,1.937H28.5a1.931,1.931,0,0,0,1.931-1.931Z" transform="translate(1.099 0.549)" fill="#f7c244"/>
      <path id="Trazado_903418" data-name="Trazado 903418" d="M26.744,6.085a12.209,12.209,0,0,0-8.968,18.465,18.073,18.073,0,0,1,1.273,2.537h11.38a3.33,3.33,0,0,0,3.33-3.33V7.35a12.194,12.194,0,0,0-7.015-1.264Z" transform="translate(1.099 0.549)" fill="#f9ce69"/>
      <path id="Trazado_903419" data-name="Trazado 903419" d="M46,14H59.319v6.659H46Z" transform="translate(4.396 1.428)" fill="#c8d1d5"/>
      <path id="Trazado_903420" data-name="Trazado 903420" d="M7,56H51.4v6.659H7Z" transform="translate(0.11 6.044)" fill="#bac5ca"/>
      <path id="Trazado_903421" data-name="Trazado 903421" d="M41,33.55l.953-3.815a2.291,2.291,0,0,1,3.841-1.064l.084.084A2.291,2.291,0,0,1,44.815,32.6Z" transform="translate(3.847 2.967)" fill="#f7c244"/>
      <path id="Trazado_903422" data-name="Trazado 903422" d="M13.55,34.55,12.6,30.735a2.293,2.293,0,0,0-3.841-1.069l-.089.089A2.291,2.291,0,0,0,9.731,33.6Z" transform="translate(0.219 3.076)" fill="#f7c244"/>
      <path id="Trazado_903423" data-name="Trazado 903423" d="M7,59.33H42.517A3.33,3.33,0,0,0,45.847,56H7Z" transform="translate(0.11 6.044)" fill="#c8d1d5"/>
      <path id="Trazado_903424" data-name="Trazado 903424" d="M63.715,16.538v-2.22H51.506v-1.11a3.33,3.33,0,0,0-3.33-3.33H44.663A17.747,17.747,0,1,0,20.41,34.118c0,.19.019.377.019.568v1.728a5.254,5.254,0,0,0,1.181,3.432h-6.73a1.11,1.11,0,0,0-1.041.726L6.069,61.66h.008A1.088,1.088,0,0,0,6,62.044V68.7a1.11,1.11,0,0,0,1.11,1.11h44.4a1.11,1.11,0,0,0,1.11-1.11V62.044a1.088,1.088,0,0,0-.077-.381h.008L44.778,40.575a1.11,1.11,0,0,0-1.041-.729H36.72a9.473,9.473,0,0,0,1.467-4.995V34.69c0-.191.014-.382.021-.574a17.742,17.742,0,0,0,6.477-6.48h3.491a3.33,3.33,0,0,0,3.33-3.33V23.2H63.715v-2.22H51.506v-4.44ZM34.125,48.193a5.506,5.506,0,0,1-1.479,7.157,16.538,16.538,0,0,1,1.479-7.157Zm-1.487-3.728v.93a3.219,3.219,0,0,1-.365,1.5,18.6,18.6,0,0,0-1.855,8.622v.865a5.549,5.549,0,0,1-2.22,0v-.715a18.715,18.715,0,0,0-1.9-8.709,3.119,3.119,0,0,1-.356-1.484l.018-2.509A4.821,4.821,0,0,0,23.935,39a2.962,2.962,0,0,1-1.286-2.589V34.686a19.519,19.519,0,0,0-2.827-10.163,11.067,11.067,0,0,1-1.474-7.547,11.1,11.1,0,1,1,20.6,7.3A20.785,20.785,0,0,0,35.967,34.69v.161a7.256,7.256,0,0,1-1.443,4.334,8.816,8.816,0,0,0-1.887,5.28Zm-8.183,3.8a16.52,16.52,0,0,1,1.508,7.078,5.5,5.5,0,0,1-1.508-7.078ZM50.4,67.593H8.22v-4.44H50.4Zm-.482-6.659H8.7l6.955-18.868H23.58a2.553,2.553,0,0,1,.168.888l-.018,2.509v.092a7.769,7.769,0,1,0,11.12-.034c0-.04.007-.08.007-.12v-.93a6.016,6.016,0,0,1,.548-2.405H42.96ZM38.56,31.239a20.3,20.3,0,0,1,2.3-5.854,13.319,13.319,0,1,0-22.937.293,17.129,17.129,0,0,1,2.164,5.586,15.539,15.539,0,1,1,18.47-.026Zm10.726-6.931a1.11,1.11,0,0,1-1.11,1.11h-2.41A17.662,17.662,0,0,0,45.759,12.1h2.417a1.11,1.11,0,0,1,1.11,1.11Z" transform="translate(0 0)"/>
      <path id="Trazado_903425" data-name="Trazado 903425" d="M21.1,15.545a30.586,30.586,0,0,1,3.213,13.608V31.7h2.22V29.154a32.829,32.829,0,0,0-3.441-14.6Z" transform="translate(1.66 1.489)"/>
      <path id="Trazado_903426" data-name="Trazado 903426" d="M28,29.154v6.983h2.22V29.154a30.585,30.585,0,0,1,3.219-13.608l-1.987-.992A32.829,32.829,0,0,0,28,29.154Z" transform="translate(2.418 1.489)"/>
      <path id="Trazado_903427" data-name="Trazado 903427" d="M46.689,28a3.4,3.4,0,0,0-5.7,1.576l-.955,3.815a1.11,1.11,0,0,0,1.345,1.346l3.816-.953a3.4,3.4,0,0,0,1.576-5.7Zm-1.264,3.016a1.175,1.175,0,0,1-.769.617l-2.021.505.506-2.02a1.178,1.178,0,0,1,1.977-.547l.085.087a1.176,1.176,0,0,1,.222,1.355Z" transform="translate(3.737 2.857)"/>
      <path id="Trazado_903428" data-name="Trazado 903428" d="M9.575,34.783l3.816.953a1.11,1.11,0,0,0,1.345-1.346l-.953-3.814A3.4,3.4,0,0,0,8.078,29L8,29.08a3.4,3.4,0,0,0,1.579,5.7Zm-.008-4.135.082-.081a1.18,1.18,0,0,1,1.98.548l.505,2.019-2.021-.505a1.18,1.18,0,0,1-.546-1.981Z" transform="translate(0.11 2.967)"/>
    </g>
  </g>
</svg>
