<svg xmlns="http://www.w3.org/2000/svg" width="85" height="85" viewBox="0 0 85 85">
  <g id="Grupo_1113085" data-name="Grupo 1113085" transform="translate(-1009.198 -5176)">
    <rect id="Rectángulo_402558" data-name="Rectángulo 402558" width="85" height="85" transform="translate(1009.198 5176)" fill="none"/>
    <g id="Grupo_1113082" data-name="Grupo 1113082" transform="translate(1015.198 5182)">
      <g id="Artboard_08" data-name="Artboard 08" transform="translate(2.145 2.145)">
        <path id="Trazado_903429" data-name="Trazado 903429" d="M23.145,2H43.758V8.343l-4.581,4.3-11.24-.56L22,7.153Z" transform="translate(0.903 -2)" fill="#80828b"/>
        <path id="Trazado_903430" data-name="Trazado 903430" d="M41.892,14.553A14.874,14.874,0,0,0,48.774,2H44.194a10.264,10.264,0,0,1-2.538,6.772H26.118A10.264,10.264,0,0,1,23.581,2H19a14.877,14.877,0,0,0,6.881,12.553Z" transform="translate(0.468 -2)" fill="#aaadb9"/>
        <path id="Trazado_903431" data-name="Trazado 903431" d="M42.006,32H64.315a2.29,2.29,0,0,1,2.23,1.766l4.165,17.7H2l4.165-17.7A2.29,2.29,0,0,1,8.395,32Z" transform="translate(-2 2.355)" fill="#b3b1aa"/>
        <path id="Trazado_903432" data-name="Trazado 903432" d="M47.081,36H61.968l2.29,10.306H7L9.29,36h37.79Z" transform="translate(-1.274 2.935)" fill="#4e4e4e"/>
        <path id="Trazado_903433" data-name="Trazado 903433" d="M2,49H70.71v4.581H2Z" transform="translate(-2 4.823)" fill="#d1d0cc"/>
        <path id="Trazado_903434" data-name="Trazado 903434" d="M4,53v3.435a2.29,2.29,0,0,0,2.29,2.29H65.839a2.29,2.29,0,0,0,2.29-2.29V53Z" transform="translate(-1.71 5.403)" fill="#b3b1aa"/>
        <path id="Trazado_903435" data-name="Trazado 903435" d="M7,58H64.258v4.581H7Z" transform="translate(-1.274 6.129)" fill="#868580"/>
        <path id="Trazado_903436" data-name="Trazado 903436" d="M8.272,45.226h12.47c0-1.9,1.538-4.581,3.435-4.581h2.29A3.435,3.435,0,0,0,29.9,37.21V31.082A10.489,10.489,0,0,0,29.8,29.6L27.66,14.639a4.821,4.821,0,0,1-.047-.668V10.318a6.959,6.959,0,0,1,2.038-4.924A4.771,4.771,0,0,1,33.024,4h5.21a4.77,4.77,0,0,1,3.372,1.4,6.959,6.959,0,0,1,2.039,4.921v3.653a4.821,4.821,0,0,1-.047.668L41.46,29.6a10.489,10.489,0,0,0-.105,1.48V37.21a3.435,3.435,0,0,0,3.435,3.435h2.29c1.9,0,3.435,2.683,3.435,4.581h12.47l1.272,5.726H7Z" transform="translate(-1.274 -1.71)" fill="#f4ac1c"/>
        <g id="Grupo_1113081" data-name="Grupo 1113081" transform="translate(0 12.597)">
          <path id="Trazado_903437" data-name="Trazado 903437" d="M52.2,29.3l-2.125-.854c.106-.261,2.653-6.445,9.08-6.445v2.29c-4.86,0-6.871,4.81-6.955,5.009Z" transform="translate(4.978 -11.694)" fill="#ffdd7d"/>
          <path id="Trazado_903438" data-name="Trazado 903438" d="M52.435,19.871a3.435,3.435,0,1,1,3.435-3.435A3.435,3.435,0,0,1,52.435,19.871Zm0-4.581a1.145,1.145,0,1,0,1.145,1.145A1.145,1.145,0,0,0,52.435,15.29Z" transform="translate(4.823 -13)" fill="#ffdd7d"/>
          <path id="Trazado_903439" data-name="Trazado 903439" d="M60,22h2.29v2.29H60Z" transform="translate(6.419 -11.694)" fill="#ffdd7d"/>
          <path id="Trazado_903440" data-name="Trazado 903440" d="M43.154,26.369,41.1,25.344c.253-.5,2.535-4.96,5.094-6.239l1.024,2.05C45.807,21.861,43.976,24.728,43.154,26.369Z" transform="translate(3.677 -12.114)" fill="#ffdd7d"/>
          <path id="Trazado_903441" data-name="Trazado 903441" d="M12.955,29.3C12.871,29.1,10.86,24.29,6,24.29V22c6.427,0,8.973,6.184,9.08,6.445Z" transform="translate(-1.419 -11.694)" fill="#ffdd7d"/>
          <path id="Trazado_903442" data-name="Trazado 903442" d="M12.435,19.871a3.435,3.435,0,1,1,3.435-3.435A3.435,3.435,0,0,1,12.435,19.871Zm0-4.581a1.145,1.145,0,1,0,1.145,1.145A1.145,1.145,0,0,0,12.435,15.29Z" transform="translate(-0.984 -13)" fill="#ffdd7d"/>
          <path id="Trazado_903443" data-name="Trazado 903443" d="M2,22H4.29v2.29H2Z" transform="translate(-2 -11.694)" fill="#ffdd7d"/>
          <path id="Trazado_903444" data-name="Trazado 903444" d="M21.622,26.369c-.822-1.641-2.653-4.507-4.069-5.214l1.024-2.05c2.558,1.279,4.841,5.735,5.094,6.239Z" transform="translate(0.258 -12.114)" fill="#ffdd7d"/>
        </g>
        <path id="Trazado_903445" data-name="Trazado 903445" d="M47.177,45.226c0-1.9-1.538-4.581-3.435-4.581h-2.29a3.435,3.435,0,0,1-3.435-3.435V31.082a10.489,10.489,0,0,1,.105-1.48l2.138-14.964.047-.668V10.318a6.957,6.957,0,0,0-2.027-4.91A4.89,4.89,0,0,0,34.81,4H32.29A2.29,2.29,0,0,0,30,6.29v37.5a7.157,7.157,0,0,0,7.157,7.157H60.919l-1.272-5.726Z" transform="translate(2.065 -1.71)" fill="#ffc239"/>
        <path id="Trazado_903446" data-name="Trazado 903446" d="M35.474,40.069,34.6,38.984a6.029,6.029,0,0,1-1.315-3.749V24H31V35.235a8.323,8.323,0,0,0,1.817,5.181l.868,1.084a8.254,8.254,0,0,0,6.476,3.113v-2.29a5.971,5.971,0,0,1-4.687-2.254Z" transform="translate(2.21 1.194)" fill="#ffd55d"/>
        <path id="Trazado_903447" data-name="Trazado 903447" d="M29.016,38.076a2.508,2.508,0,0,1-2.506,2.5H21v2.29h5.511a4.8,4.8,0,0,0,4.8-4.795V36h-2.29Z" transform="translate(0.758 2.935)" fill="#ffd55d"/>
        <path id="Trazado_903448" data-name="Trazado 903448" d="M31,18h2.29v4.581H31Z" transform="translate(2.21 0.323)" fill="#ffd55d"/>
        <rect id="Rectángulo_402553" data-name="Rectángulo 402553" width="3.435" height="17.177" rx="1.5" transform="translate(36.645 5.153)" fill="#ffdd7d"/>
        <rect id="Rectángulo_402554" data-name="Rectángulo 402554" width="10.779" height="2.714" rx="1.185" transform="translate(48.81 44.449)" fill="#ffdd7d"/>
      </g>
      <g id="BG" transform="translate(1 1)">
        <path id="Trazado_903449" data-name="Trazado 903449" d="M71.97,55.705,67.8,38a3.422,3.422,0,0,0-3.344-2.649H43.371V31.517a9.225,9.225,0,0,1,.094-1.317L45.59,15.321A15.95,15.95,0,0,0,52.532,2.145,1.145,1.145,0,0,0,51.387,1H46.806a1.145,1.145,0,0,0-1.145,1.145A9.153,9.153,0,0,1,44.5,6.59a8.166,8.166,0,0,0-1.215-1.567A5.876,5.876,0,0,0,39.105,3.29h-5.21a5.876,5.876,0,0,0-4.182,1.733A8.174,8.174,0,0,0,28.5,6.591a9.161,9.161,0,0,1-1.159-4.446A1.145,1.145,0,0,0,26.194,1H21.613a1.145,1.145,0,0,0-1.145,1.145,15.953,15.953,0,0,0,6.943,13.177L29.535,30.2a9.253,9.253,0,0,1,.094,1.316v3.837H8.54A3.422,3.422,0,0,0,5.2,38L1.03,55.705a1.115,1.115,0,0,0,0,.262H1v4.581a1.145,1.145,0,0,0,1.145,1.145H3.29v2.29a3.435,3.435,0,0,0,3.435,3.435v3.435A1.145,1.145,0,0,0,7.871,72H65.129a1.145,1.145,0,0,0,1.145-1.145V67.419a3.435,3.435,0,0,0,3.435-3.435v-2.29h1.145A1.145,1.145,0,0,0,72,60.548V55.968h-.029a1.116,1.116,0,0,0,0-.262ZM22.805,3.29h2.3A11.433,11.433,0,0,0,27.489,9.2a8.154,8.154,0,0,0-.15,1.555v1.6A13.651,13.651,0,0,1,22.805,3.29Zm25.089,0h2.3a13.651,13.651,0,0,1-4.534,9.072v-1.6a8.129,8.129,0,0,0-.15-1.553A11.438,11.438,0,0,0,47.894,3.29ZM29.629,10.754a5.776,5.776,0,0,1,1.7-4.112,3.651,3.651,0,0,1,2.563-1.062h5.21a3.651,3.651,0,0,1,2.563,1.062,5.776,5.776,0,0,1,1.7,4.112v3.653a3.562,3.562,0,0,1-.035.5L41.2,29.876a11.593,11.593,0,0,0-.115,1.641v6.128a4.581,4.581,0,0,0,4.581,4.581h2.29c1.106,0,2.29,2.017,2.29,3.435a1.145,1.145,0,0,0,1.145,1.145H62.938l.763,3.435H9.3l.763-3.435H21.613a1.145,1.145,0,0,0,1.145-1.145c0-1.419,1.184-3.435,2.29-3.435h2.29a4.581,4.581,0,0,0,4.581-4.581V31.517a11.62,11.62,0,0,0-.115-1.642L29.665,14.91a3.534,3.534,0,0,1-.035-.5ZM51.454,42.226H61.923l.508,2.29H52.4a7.349,7.349,0,0,0-.946-2.29Zm-40.882,2.29.506-2.29H21.544a7.349,7.349,0,0,0-.946,2.29ZM7.425,38.528a1.145,1.145,0,0,1,1.114-.883H29.629a2.29,2.29,0,0,1-2.29,2.29H10.161a1.145,1.145,0,0,0-1.118.9L6.753,51.139a1.145,1.145,0,0,0,1.118,1.394H65.129a1.145,1.145,0,0,0,1.118-1.394l-2.29-10.306a1.145,1.145,0,0,0-1.118-.9H45.661a2.29,2.29,0,0,1-2.29-2.29H64.46a1.145,1.145,0,0,1,1.114.883l3.834,16.295H3.592ZM63.984,69.71H9.016v-2.29H63.984Zm3.435-5.726a1.145,1.145,0,0,1-1.145,1.145H6.726a1.145,1.145,0,0,1-1.145-1.145v-2.29H67.419ZM3.29,59.4v-2.29H69.71V59.4Z" transform="translate(-1 -1)"/>
        <path id="Trazado_903450" data-name="Trazado 903450" d="M50.071,28.445,52.2,29.3c.084-.2,2.094-5.009,6.955-5.009V22C52.724,22,50.178,28.184,50.071,28.445Z" transform="translate(6.123 2.048)"/>
        <path id="Trazado_903451" data-name="Trazado 903451" d="M52.435,13a3.435,3.435,0,1,0,3.435,3.435A3.435,3.435,0,0,0,52.435,13Zm0,4.581a1.145,1.145,0,1,1,1.145-1.145A1.145,1.145,0,0,1,52.435,17.581Z" transform="translate(5.968 0.742)"/>
        <path id="Trazado_903452" data-name="Trazado 903452" d="M60,22h2.29v2.29H60Z" transform="translate(7.565 2.048)"/>
        <path id="Trazado_903453" data-name="Trazado 903453" d="M41.1,25.344l2.049,1.025c.822-1.641,2.653-4.507,4.069-5.214L46.2,19.1c-2.558,1.279-4.841,5.735-5.094,6.239Z" transform="translate(4.822 1.628)"/>
        <path id="Trazado_903454" data-name="Trazado 903454" d="M6,24.29c4.86,0,6.871,4.81,6.955,5.009l2.125-.854C14.973,28.184,12.427,22,6,22Z" transform="translate(-0.274 2.048)"/>
        <path id="Trazado_903455" data-name="Trazado 903455" d="M15.871,16.435a3.435,3.435,0,1,0-3.435,3.435A3.435,3.435,0,0,0,15.871,16.435Zm-4.581,0a1.145,1.145,0,1,1,1.145,1.145A1.145,1.145,0,0,1,11.29,16.435Z" transform="translate(0.161 0.742)"/>
        <path id="Trazado_903456" data-name="Trazado 903456" d="M2,22H4.29v2.29H2Z" transform="translate(-0.855 2.048)"/>
        <path id="Trazado_903457" data-name="Trazado 903457" d="M23.675,25.344c-.253-.5-2.535-4.96-5.094-6.239l-1.024,2.05c1.415.707,3.247,3.573,4.069,5.214Z" transform="translate(1.404 1.628)"/>
        <path id="Trazado_903458" data-name="Trazado 903458" d="M33.685,41.5a8.254,8.254,0,0,0,6.476,3.113v-2.29a5.971,5.971,0,0,1-4.687-2.254L34.6,38.984a6.029,6.029,0,0,1-1.315-3.749V24H31V35.235a8.323,8.323,0,0,0,1.817,5.181Z" transform="translate(3.355 2.339)"/>
        <path id="Trazado_903459" data-name="Trazado 903459" d="M29.016,38.076a2.508,2.508,0,0,1-2.506,2.5H21v2.29h5.511a4.8,4.8,0,0,0,4.8-4.795V36h-2.29Z" transform="translate(1.903 4.081)"/>
        <path id="Trazado_903460" data-name="Trazado 903460" d="M31,18h2.29v4.581H31Z" transform="translate(3.355 1.468)"/>
      </g>
    </g>
  </g>
</svg>
