<svg xmlns="http://www.w3.org/2000/svg" xmlns:xlink="http://www.w3.org/1999/xlink" width="108.914" height="108.914" viewBox="0 0 108.914 108.914">
  <defs>
    <filter id="Trazado_874925" x="0" y="0" width="108.914" height="108.914" filterUnits="userSpaceOnUse">
      <feOffset dy="3" input="SourceAlpha"/>
      <feGaussianBlur stdDeviation="3" result="blur"/>
      <feFlood flood-opacity="0.161"/>
      <feComposite operator="in" in2="blur"/>
      <feComposite in="SourceGraphic"/>
    </filter>
  </defs>
  <g id="Grupo_1113095" data-name="Grupo 1113095" transform="translate(-1114.541 -867.211)">
    <g id="Grupo_1109131" data-name="Grupo 1109131" transform="translate(1123.541 873.211)">
      <g transform="matrix(1, 0, 0, 1, -9, -6)" filter="url(#Trazado_874925)">
        <g id="Trazado_874925-2" data-name="Trazado 874925" transform="translate(9 6)" fill="#cdd2dc" opacity="0.859">
          <path d="M 45.45676803588867 89.41407012939453 C 39.52198028564453 89.41407012939453 33.76551818847656 88.25206756591797 28.34726715087891 85.96034240722656 C 23.11311721801758 83.74648284912109 18.41204261779785 80.57682800292969 14.37464332580566 76.5394287109375 C 10.33724308013916 72.50202941894531 7.167593002319336 67.80095672607422 4.953730583190918 62.56679534912109 C 2.662005424499512 57.14855575561523 1.500005483627319 51.39208221435547 1.500005483627319 45.45729446411133 C 1.500005483627319 39.52198028564453 2.662005424499512 33.76551818847656 4.953730583190918 28.34726905822754 C 7.167593002319336 23.11310577392578 10.33724308013916 18.41203117370605 14.37464332580566 14.37464332580566 C 18.41204261779785 10.33724403381348 23.11311721801758 7.167593955993652 28.34726715087891 4.953731060028076 C 33.76551818847656 2.662006139755249 39.52198028564453 1.500006198883057 45.45676803588867 1.500006198883057 C 51.39155578613281 1.500006198883057 57.14802932739258 2.662006139755249 62.56626892089844 4.953731060028076 C 67.80043029785156 7.167593955993652 72.50150299072266 10.33724403381348 76.53890228271484 14.37464332580566 C 80.57630920410156 18.41203117370605 83.74595642089844 23.11310577392578 85.95981597900391 28.34726905822754 C 88.25154113769531 33.76551818847656 89.41354370117188 39.52198028564453 89.41354370117188 45.45676803588867 C 89.41354370117188 51.39208221435547 88.25154113769531 57.14855575561523 85.95981597900391 62.56679534912109 C 83.74595642089844 67.80095672607422 80.57630920410156 72.50202941894531 76.53890228271484 76.5394287109375 C 72.50150299072266 80.57682800292969 67.80043029785156 83.74648284912109 62.56626892089844 85.96034240722656 C 57.14802932739258 88.25206756591797 51.39155578613281 89.41407012939453 45.45676803588867 89.41407012939453 Z" stroke="none"/>
          <path d="M 45.45676803588867 3 C 39.72381210327148 3 34.1639404296875 4.12213134765625 28.93159484863281 6.335227966308594 C 23.87622833251953 8.473472595214844 19.33542633056641 11.53517150878906 15.43529510498047 15.435302734375 C 11.53517150878906 19.33543395996094 8.473464965820312 23.87622833251953 6.335227966308594 28.93160247802734 C 4.122123718261719 34.16394424438477 3 39.72381591796875 3 45.4572868347168 C 3 51.19024658203125 4.122123718261719 56.75011825561523 6.335227966308594 61.98246002197266 C 8.473464965820312 67.03782653808594 11.53517150878906 71.57862854003906 15.43529510498047 75.478759765625 C 19.33542633056641 79.37889099121094 23.87622833251953 82.44058990478516 28.93159484863281 84.57883453369141 C 34.1639404296875 86.79193115234375 39.72381210327148 87.9140625 45.45676803588867 87.9140625 C 51.18972396850586 87.9140625 56.74959564208984 86.79193115234375 61.98194122314453 84.57883453369141 C 67.03730773925781 82.44058990478516 71.57810974121094 79.37889099121094 75.47824096679688 75.478759765625 C 79.37837219238281 71.57862854003906 82.44007110595703 67.03782653808594 84.57830810546875 61.98246002197266 C 86.79141235351562 56.75011825561523 87.91353607177734 51.19024658203125 87.91353607177734 45.4567756652832 C 87.91353607177734 39.72381591796875 86.79141235351562 34.16394424438477 84.57830810546875 28.93160247802734 C 82.44007110595703 23.87622833251953 79.37837219238281 19.33543395996094 75.47824096679688 15.435302734375 C 71.57810974121094 11.53517150878906 67.03730773925781 8.473472595214844 61.98194122314453 6.335227966308594 C 56.74959564208984 4.12213134765625 51.18972396850586 3 45.45676803588867 3 M 45.45676803588867 0 C 70.56185150146484 0 90.91353607177734 20.35169219970703 90.91353607177734 45.4567756652832 L 90.91353607177734 45.4572868347168 C 90.91353607177734 70.5623779296875 70.56185150146484 90.9140625 45.45676803588867 90.9140625 C 20.3516845703125 90.9140625 0 70.5623779296875 0 45.4572868347168 L 0 45.4567756652832 C 0 20.35169219970703 20.3516845703125 0 45.45676803588867 0 Z" stroke="none" fill="#fff"/>
        </g>
      </g>
      <g id="Grupo_1109130" data-name="Grupo 1109130">
        <g id="Trazado_874923" data-name="Trazado 874923" fill="none">
          <path d="M45.457,0A45.457,45.457,0,0,1,90.914,45.457h0A45.457,45.457,0,0,1,0,45.457H0A45.457,45.457,0,0,1,45.457,0Z" stroke="none"/>
          <path d="M 45.45676803588867 3 C 39.72381210327148 3 34.1639404296875 4.12213134765625 28.93159484863281 6.335227966308594 C 23.87622833251953 8.473472595214844 19.33542633056641 11.53517150878906 15.43529510498047 15.435302734375 C 11.53517150878906 19.33543395996094 8.473464965820312 23.87622833251953 6.335227966308594 28.93160247802734 C 4.122123718261719 34.16394424438477 3 39.72381591796875 3 45.4572868347168 C 3 51.19024658203125 4.122123718261719 56.75011825561523 6.335227966308594 61.98246002197266 C 8.473464965820312 67.03782653808594 11.53517150878906 71.57862854003906 15.43529510498047 75.478759765625 C 19.33542633056641 79.37889099121094 23.87622833251953 82.44058990478516 28.93159484863281 84.57883453369141 C 34.1639404296875 86.79193115234375 39.72381210327148 87.9140625 45.45676803588867 87.9140625 C 51.18972396850586 87.9140625 56.74959564208984 86.79193115234375 61.98194122314453 84.57883453369141 C 67.03730773925781 82.44058990478516 71.57810974121094 79.37889099121094 75.47824096679688 75.478759765625 C 79.37837219238281 71.57862854003906 82.44007110595703 67.03782653808594 84.57830810546875 61.98246002197266 C 86.79141235351562 56.75011825561523 87.91353607177734 51.19024658203125 87.91353607177734 45.4567756652832 C 87.91353607177734 39.72381591796875 86.79141235351562 34.16394424438477 84.57830810546875 28.93160247802734 C 82.44007110595703 23.87622833251953 79.37837219238281 19.33543395996094 75.47824096679688 15.435302734375 C 71.57810974121094 11.53517150878906 67.03730773925781 8.473472595214844 61.98194122314453 6.335227966308594 C 56.74959564208984 4.12213134765625 51.18972396850586 3 45.45676803588867 3 M 45.45676803588867 0 C 70.56185150146484 0 90.91353607177734 20.35169219970703 90.91353607177734 45.4567756652832 L 90.91353607177734 45.4572868347168 C 90.91353607177734 70.5623779296875 70.56185150146484 90.9140625 45.45676803588867 90.9140625 C 20.3516845703125 90.9140625 0 70.5623779296875 0 45.4572868347168 L 0 45.4567756652832 C 0 20.35169219970703 20.3516845703125 0 45.45676803588867 0 Z" stroke="none" fill="#fff"/>
        </g>
      </g>
    </g>
    <g id="Grupo_1109866" data-name="Grupo 1109866" transform="translate(1139.902 890)">
      <g id="Layer_x0020_1" transform="translate(2 7)">
        <path id="Trazado_900891" data-name="Trazado 900891" d="M13.108,233.99H8.6a.932.932,0,0,1-.908-1.168l4.542-16.969-.065-.26H.941A.942.942,0,0,1,0,214.653v-4.315a.942.942,0,0,1,.941-.941h9.571L5.905,192.168A.932.932,0,0,1,6.813,191h4.51a.908.908,0,0,1,.908.681l3.245,12.07,2.433-9.085a.944.944,0,0,1,.908-.681h4.51a.932.932,0,0,1,.908,1.168L23,199.76h16.19l2.141-8.079a.935.935,0,0,1,.908-.681h4.542a.932.932,0,0,1,.908,1.168l-4.542,16.969.065.26H54.411a.942.942,0,0,1,.941.941v4.315a.942.942,0,0,1-.941.941H44.872l4.607,17.228a.932.932,0,0,1-.908,1.168h-4.51a.916.916,0,0,1-.908-.681l-3.245-12.1-2.433,9.085a.965.965,0,0,1-.908.714H32.023a.947.947,0,0,1-.908-1.2l1.233-4.575H16.19l-2.174,8.079A.916.916,0,0,1,13.108,233.99ZM11.68,213.712,11,211.278H1.882v2.433ZM43.7,211.278l.649,2.433H53.5v-2.433Zm-31.082-1.233.584,2.174,1.3-4.834-3.893-14.5h-2.6Zm20.246,13.3,5.808-21.706H36.111l-5.84,21.706Zm7.949-22.387-7.56,28.162h2.6l9.7-36.241h-2.6ZM27.806,215.723l-2.044,7.625h2.563l5.84-21.706h-2.6Zm-3.991,7.625,5.808-21.706h-2.6l-5.808,21.706Zm-4.542,0,5.808-21.706H22.517l-5.808,21.706Zm-4.7.714,7.56-28.195h-2.6l-9.7,36.241h2.563Zm27.611-11.291-1.3,4.8,3.893,14.535h2.563Z" transform="translate(0 -191)" fill-rule="evenodd"/>
        <path id="Trazado_900892" data-name="Trazado 900892" d="M1347.649,818.433h9.15V816H1347Z" transform="translate(-1303.296 -795.722)" fill="#378b4e" fill-rule="evenodd"/>
        <path id="Trazado_900893" data-name="Trazado 900893" d="M1266.457,881.337,1261.3,862l-1.3,4.8,3.893,14.535Z" transform="translate(-1219.119 -840.229)" fill="#7ed63f" fill-rule="evenodd"/>
        <path id="Trazado_900894" data-name="Trazado 900894" d="M1027.6,285.241,1037.3,249h-2.6l-2.141,8.079L1025,285.241Z" transform="translate(-991.744 -247.118)" fill="#7ed63f" fill-rule="evenodd"/>
        <g id="Grupo_1109830" data-name="Grupo 1109830" transform="translate(16.709 10.642)">
          <path id="Trazado_900895" data-name="Trazado 900895" d="M935.6,540.706,941.4,519H938.84L933,540.706Z" transform="translate(-919.438 -519)" fill="#378b4e" fill-rule="evenodd"/>
          <path id="Trazado_900896" data-name="Trazado 900896" d="M796.563,540.706,802.4,519h-2.6l-3.764,14.081L794,540.706Z" transform="translate(-784.948 -519)" fill="#378b4e" fill-rule="evenodd"/>
          <path id="Trazado_900897" data-name="Trazado 900897" d="M656.6,540.706,662.4,519h-2.6L654,540.706Z" transform="translate(-649.49 -519)" fill="#378b4e" fill-rule="evenodd"/>
          <path id="Trazado_900898" data-name="Trazado 900898" d="M517.563,540.706,523.371,519h-2.563L515,540.706Z" transform="translate(-515 -519)" fill="#378b4e" fill-rule="evenodd"/>
        </g>
        <path id="Trazado_900899" data-name="Trazado 900899" d="M307.737,369.195,315.3,341h-2.6L303,377.241h2.563Z" transform="translate(-293.169 -336.133)" fill="#7ed63f" fill-rule="evenodd"/>
        <path id="Trazado_900900" data-name="Trazado 900900" d="M252.191,268.337l1.3-4.834L249.6,249H247l4.607,17.163Z" transform="translate(-238.986 -247.118)" fill="#7ed63f" fill-rule="evenodd"/>
        <path id="Trazado_900901" data-name="Trazado 900901" d="M67.8,818.433,67.117,816H58v2.433Z" transform="translate(-56.118 -795.722)" fill="#378b4e" fill-rule="evenodd"/>
      </g>
      <rect id="Rectángulo_402373" data-name="Rectángulo 402373" width="58" height="58" fill="none"/>
    </g>
  </g>
</svg>
