<svg xmlns="http://www.w3.org/2000/svg" xmlns:xlink="http://www.w3.org/1999/xlink" width="108.914" height="108.914" viewBox="0 0 108.914 108.914">
  <defs>
    <filter id="Trazado_874925" x="0" y="0" width="108.914" height="108.914" filterUnits="userSpaceOnUse">
      <feOffset dy="3" input="SourceAlpha"/>
      <feGaussianBlur stdDeviation="3" result="blur"/>
      <feFlood flood-opacity="0.161"/>
      <feComposite operator="in" in2="blur"/>
      <feComposite in="SourceGraphic"/>
    </filter>
  </defs>
  <g id="Grupo_1113096" data-name="Grupo 1113096" transform="translate(5452.249 10741)">
    <g id="Grupo_1109131" data-name="Grupo 1109131" transform="translate(-5443.249 -10735)">
      <g transform="matrix(1, 0, 0, 1, -9, -6)" filter="url(#Trazado_874925)">
        <g id="Trazado_874925-2" data-name="Trazado 874925" transform="translate(9 6)" fill="#cdd2dc" opacity="0.859">
          <path d="M 45.45676803588867 89.41407012939453 C 39.52198028564453 89.41407012939453 33.76551818847656 88.25206756591797 28.34726715087891 85.96034240722656 C 23.11311721801758 83.74648284912109 18.41204261779785 80.57682800292969 14.37464332580566 76.5394287109375 C 10.33724308013916 72.50202941894531 7.167593002319336 67.80095672607422 4.953730583190918 62.56679534912109 C 2.662005424499512 57.14855575561523 1.500005483627319 51.39208221435547 1.500005483627319 45.45729446411133 C 1.500005483627319 39.52198028564453 2.662005424499512 33.76551818847656 4.953730583190918 28.34726905822754 C 7.167593002319336 23.11310577392578 10.33724308013916 18.41203117370605 14.37464332580566 14.37464332580566 C 18.41204261779785 10.33724403381348 23.11311721801758 7.167593955993652 28.34726715087891 4.953731060028076 C 33.76551818847656 2.662006139755249 39.52198028564453 1.500006198883057 45.45676803588867 1.500006198883057 C 51.39155578613281 1.500006198883057 57.14802932739258 2.662006139755249 62.56626892089844 4.953731060028076 C 67.80043029785156 7.167593955993652 72.50150299072266 10.33724403381348 76.53890228271484 14.37464332580566 C 80.57630920410156 18.41203117370605 83.74595642089844 23.11310577392578 85.95981597900391 28.34726905822754 C 88.25154113769531 33.76551818847656 89.41354370117188 39.52198028564453 89.41354370117188 45.45676803588867 C 89.41354370117188 51.39208221435547 88.25154113769531 57.14855575561523 85.95981597900391 62.56679534912109 C 83.74595642089844 67.80095672607422 80.57630920410156 72.50202941894531 76.53890228271484 76.5394287109375 C 72.50150299072266 80.57682800292969 67.80043029785156 83.74648284912109 62.56626892089844 85.96034240722656 C 57.14802932739258 88.25206756591797 51.39155578613281 89.41407012939453 45.45676803588867 89.41407012939453 Z" stroke="none"/>
          <path d="M 45.45676803588867 3 C 39.72381210327148 3 34.1639404296875 4.12213134765625 28.93159484863281 6.335227966308594 C 23.87622833251953 8.473472595214844 19.33542633056641 11.53517150878906 15.43529510498047 15.435302734375 C 11.53517150878906 19.33543395996094 8.473464965820312 23.87622833251953 6.335227966308594 28.93160247802734 C 4.122123718261719 34.16394424438477 3 39.72381591796875 3 45.4572868347168 C 3 51.19024658203125 4.122123718261719 56.75011825561523 6.335227966308594 61.98246002197266 C 8.473464965820312 67.03782653808594 11.53517150878906 71.57862854003906 15.43529510498047 75.478759765625 C 19.33542633056641 79.37889099121094 23.87622833251953 82.44058990478516 28.93159484863281 84.57883453369141 C 34.1639404296875 86.79193115234375 39.72381210327148 87.9140625 45.45676803588867 87.9140625 C 51.18972396850586 87.9140625 56.74959564208984 86.79193115234375 61.98194122314453 84.57883453369141 C 67.03730773925781 82.44058990478516 71.57810974121094 79.37889099121094 75.47824096679688 75.478759765625 C 79.37837219238281 71.57862854003906 82.44007110595703 67.03782653808594 84.57830810546875 61.98246002197266 C 86.79141235351562 56.75011825561523 87.91353607177734 51.19024658203125 87.91353607177734 45.4567756652832 C 87.91353607177734 39.72381591796875 86.79141235351562 34.16394424438477 84.57830810546875 28.93160247802734 C 82.44007110595703 23.87622833251953 79.37837219238281 19.33543395996094 75.47824096679688 15.435302734375 C 71.57810974121094 11.53517150878906 67.03730773925781 8.473472595214844 61.98194122314453 6.335227966308594 C 56.74959564208984 4.12213134765625 51.18972396850586 3 45.45676803588867 3 M 45.45676803588867 0 C 70.56185150146484 0 90.91353607177734 20.35169219970703 90.91353607177734 45.4567756652832 L 90.91353607177734 45.4572868347168 C 90.91353607177734 70.5623779296875 70.56185150146484 90.9140625 45.45676803588867 90.9140625 C 20.3516845703125 90.9140625 0 70.5623779296875 0 45.4572868347168 L 0 45.4567756652832 C 0 20.35169219970703 20.3516845703125 0 45.45676803588867 0 Z" stroke="none" fill="#fff"/>
        </g>
      </g>
      <g id="Grupo_1109130" data-name="Grupo 1109130">
        <g id="Trazado_874923" data-name="Trazado 874923" fill="none">
          <path d="M45.457,0A45.457,45.457,0,0,1,90.914,45.457h0A45.457,45.457,0,0,1,0,45.457H0A45.457,45.457,0,0,1,45.457,0Z" stroke="none"/>
          <path d="M 45.45676803588867 3 C 39.72381210327148 3 34.1639404296875 4.12213134765625 28.93159484863281 6.335227966308594 C 23.87622833251953 8.473472595214844 19.33542633056641 11.53517150878906 15.43529510498047 15.435302734375 C 11.53517150878906 19.33543395996094 8.473464965820312 23.87622833251953 6.335227966308594 28.93160247802734 C 4.122123718261719 34.16394424438477 3 39.72381591796875 3 45.4572868347168 C 3 51.19024658203125 4.122123718261719 56.75011825561523 6.335227966308594 61.98246002197266 C 8.473464965820312 67.03782653808594 11.53517150878906 71.57862854003906 15.43529510498047 75.478759765625 C 19.33542633056641 79.37889099121094 23.87622833251953 82.44058990478516 28.93159484863281 84.57883453369141 C 34.1639404296875 86.79193115234375 39.72381210327148 87.9140625 45.45676803588867 87.9140625 C 51.18972396850586 87.9140625 56.74959564208984 86.79193115234375 61.98194122314453 84.57883453369141 C 67.03730773925781 82.44058990478516 71.57810974121094 79.37889099121094 75.47824096679688 75.478759765625 C 79.37837219238281 71.57862854003906 82.44007110595703 67.03782653808594 84.57830810546875 61.98246002197266 C 86.79141235351562 56.75011825561523 87.91353607177734 51.19024658203125 87.91353607177734 45.4567756652832 C 87.91353607177734 39.72381591796875 86.79141235351562 34.16394424438477 84.57830810546875 28.93160247802734 C 82.44007110595703 23.87622833251953 79.37837219238281 19.33543395996094 75.47824096679688 15.435302734375 C 71.57810974121094 11.53517150878906 67.03730773925781 8.473472595214844 61.98194122314453 6.335227966308594 C 56.74959564208984 4.12213134765625 51.18972396850586 3 45.45676803588867 3 M 45.45676803588867 0 C 70.56185150146484 0 90.91353607177734 20.35169219970703 90.91353607177734 45.4567756652832 L 90.91353607177734 45.4572868347168 C 90.91353607177734 70.5623779296875 70.56185150146484 90.9140625 45.45676803588867 90.9140625 C 20.3516845703125 90.9140625 0 70.5623779296875 0 45.4572868347168 L 0 45.4567756652832 C 0 20.35169219970703 20.3516845703125 0 45.45676803588867 0 Z" stroke="none" fill="#fff"/>
        </g>
      </g>
    </g>
    <g id="Grupo_1109865" data-name="Grupo 1109865" transform="translate(1431.751 21)">
      <g id="Grupo_1109832" data-name="Grupo 1109832" transform="translate(-6860.994 -10744.262)">
        <g id="Grupo_1109831" data-name="Grupo 1109831" transform="translate(8.76 12.027)">
          <path id="Trazado_900902" data-name="Trazado 900902" d="M26.716,36.926h.314a1.137,1.137,0,0,1,1.135,1.135V48.983a1.137,1.137,0,0,1-1.135,1.135H23.448a1.137,1.137,0,0,1-1.135-1.135V38.061a1.137,1.137,0,0,1,1.135-1.135h.275v-10c0-2.564-2.494-3.238-4.586-2.163A15.951,15.951,0,0,0,16,27.168c0-3.81,2.072-7.9,6.214-7.9h2.809c.838,0,1.587-.085,1.62.522a1.348,1.348,0,0,0,1.317,1.317,1.314,1.314,0,0,0,1.317-1.28.561.561,0,0,1,.559-.559h2.637a.56.56,0,0,1,.559.559v6.783a.56.56,0,0,1-.559.559H29.836a.56.56,0,0,1-.559-.559,1.281,1.281,0,1,0-2.562,0Z" transform="translate(-16 -19.263)" fill="#8192a5" fill-rule="evenodd"/>
          <path id="Trazado_900903" data-name="Trazado 900903" d="M45.343,36.926h.314a1.137,1.137,0,0,1,1.135,1.135V48.983a1.136,1.136,0,0,1-.544.968,1.126,1.126,0,0,0,.131-.528V38.5a1.137,1.137,0,0,0-1.135-1.135h-.314V27.05a1.282,1.282,0,0,1,.581-1.071,1.27,1.27,0,0,0-.167.63Zm-4.272.607a1.139,1.139,0,0,1,.866-.6v.432h-.275A1.128,1.128,0,0,0,41.071,37.533ZM36.6,21.246a5.41,5.41,0,0,1,4.245-1.979h2.809c.838,0,1.587-.085,1.62.522a1.348,1.348,0,0,0,1.317,1.317,1.329,1.329,0,0,0,.739-.227,1.321,1.321,0,0,1-2.469-.649c-.033-.607-.781-.522-1.62-.522H40.428A5.361,5.361,0,0,0,36.6,21.246Zm11.317-1.521a.561.561,0,0,1,.55-.458H51.1a.56.56,0,0,1,.559.559v6.783a.561.561,0,0,1-.423.542.556.556,0,0,0,.009-.1V20.267a.56.56,0,0,0-.559-.559H48.05A.552.552,0,0,0,47.914,19.725Z" transform="translate(-34.627 -19.263)" fill="#65788e" fill-rule="evenodd"/>
          <path id="Trazado_900904" data-name="Trazado 900904" d="M127.67,54.358l-2.6-1.5,11.042-19.125.228-2.457,3.132-3.362,2.6,1.5-1.346,4.393-2.014,1.426Z" transform="translate(-114.638 -27.084)" fill="#d1d1d6" fill-rule="evenodd"/>
          <path id="Trazado_900905" data-name="Trazado 900905" d="M148.041,54.358l-.447-.258,10.94-18.948,2.014-1.426,1.346-4.393-2.2-1.267.143-.153,2.6,1.5L161.1,33.806l-2.014,1.426Z" transform="translate(-135.009 -27.084)" fill="#b1b1b5" fill-rule="evenodd"/>
          <path id="Trazado_900906" data-name="Trazado 900906" d="M87.444,229.716l-5.114-2.953,6.187-10.716a.92.92,0,0,1,1.253-.336l3.525,2.035A.92.92,0,0,1,93.631,219Z" transform="translate(-75.986 -196.813)" fill="#ffe177" fill-rule="evenodd"/>
          <path id="Trazado_900907" data-name="Trazado 900907" d="M130.87,229.717l-.522-.3,5.918-10.25a.92.92,0,0,0-.336-1.253l-3.525-2.035a.909.909,0,0,0-.231-.094.921.921,0,0,1,1.022-.071l3.525,2.035a.92.92,0,0,1,.336,1.253Z" transform="translate(-119.412 -196.814)" fill="#ffd064" fill-rule="evenodd"/>
          <path id="Trazado_900908" data-name="Trazado 900908" d="M277.467,130.847a3.675,3.675,0,0,1,3.664,3.664V151a3.664,3.664,0,0,1-7.329,0V134.511A3.675,3.675,0,0,1,277.467,130.847Z" transform="translate(-249.148 -120.175)" fill="#9facba" fill-rule="evenodd"/>
          <path id="Trazado_900909" data-name="Trazado 900909" d="M283.053,130.847a3.675,3.675,0,0,1,3.664,3.664V151a3.656,3.656,0,0,1-1.194,2.7,3.635,3.635,0,0,0,.591-1.988V135.223a3.659,3.659,0,0,0-6.134-2.7A3.669,3.669,0,0,1,283.053,130.847Z" transform="translate(-254.733 -120.175)" fill="#8d9ca8" fill-rule="evenodd"/>
          <path id="Trazado_900910" data-name="Trazado 900910" d="M363.663,50.922a5.755,5.755,0,0,1,.372,10.441V55.578l-2.6-1.5-2.6,1.5v5.784a5.755,5.755,0,0,1,.372-10.441V29.7a5.755,5.755,0,0,1-.372-10.44v5.784l2.6,1.5,2.6-1.5V19.262a5.755,5.755,0,0,1-.371,10.44v21.22Z" transform="translate(-323.197 -19.262)" fill="#9facba" fill-rule="evenodd"/>
          <path id="Trazado_900911" data-name="Trazado 900911" d="M384.453,50.922a5.755,5.755,0,0,1,.372,10.441v-.611a5.754,5.754,0,0,0-1.328-9.83V29.7a5.754,5.754,0,0,0,1.328-9.83v-.611a5.755,5.755,0,0,1-.371,10.44v21.22Zm-2.7,3.432-2.12,1.224v5.784a5.758,5.758,0,0,1-.956-.611V55.578l2.6-1.5Zm-3.077-34.482a5.76,5.76,0,0,1,.956-.611v5.784l2.6,1.5-.478.276-3.077-1.776Z" transform="translate(-343.987 -19.262)" fill="#8d9ca8" fill-rule="evenodd"/>
          <circle id="Elipse_11524" data-name="Elipse 11524" cx="1.327" cy="1.327" r="1.327" transform="translate(26.993 13.009)" fill="#8192a5"/>
          <path id="Trazado_900912" data-name="Trazado 900912" d="M16,276.125l3.14-3.733H58.765l3.14,3.733v17.34H16Z" transform="translate(-16 -248.184)" fill="#f2d1a5" fill-rule="evenodd"/>
          <path id="Trazado_900913" data-name="Trazado 900913" d="M453.17,272.392h.956l3.14,3.733v17.34h-.956v-17.34Z" transform="translate(-411.361 -248.184)" fill="#ecba78" fill-rule="evenodd"/>
          <path id="Trazado_900914" data-name="Trazado 900914" d="M94.877,311.424h7.76v5.205h-7.76Z" transform="translate(-87.334 -283.483)" fill="#e3a76f" fill-rule="evenodd"/>
          <path id="Trazado_900915" data-name="Trazado 900915" d="M166.02,311.424h.956v5.205h-.956Z" transform="translate(-151.673 -283.483)" fill="#c48958" fill-rule="evenodd"/>
          <path id="Trazado_900916" data-name="Trazado 900916" d="M335.979,311.424h7.76v5.205h-7.76Z" transform="translate(-305.378 -283.483)" fill="#e3a76f" fill-rule="evenodd"/>
          <path id="Trazado_900917" data-name="Trazado 900917" d="M407.122,311.424h.956v5.205h-.956Z" transform="translate(-369.717 -283.483)" fill="#c48958" fill-rule="evenodd"/>
          <path id="Trazado_900918" data-name="Trazado 900918" d="M40.655,276.125h21.25l-3.14-3.733H19.14L16,276.125H40.655Z" transform="translate(-16 -248.184)" fill="#ecba78" fill-rule="evenodd"/>
          <path id="Trazado_900919" data-name="Trazado 900919" d="M456.31,276.125h.956l-3.14-3.733h-.956Z" transform="translate(-411.361 -248.184)" fill="#e3a76f" fill-rule="evenodd"/>
          <path id="Trazado_900920" data-name="Trazado 900920" d="M85.357,210.5l2.506-4.341v-1.07a1.137,1.137,0,0,0-1.135-1.135H83.138a1.137,1.137,0,0,0-1.127,1.135v5.41h3.346Z" transform="translate(-75.698 -186.29)" fill="#e3a76f" fill-rule="evenodd"/>
          <path id="Trazado_900921" data-name="Trazado 900921" d="M88.008,206.571l.239-.414v-1.07a1.137,1.137,0,0,0-1.135-1.135H83.523a1.138,1.138,0,0,0-1.087.834,1.133,1.133,0,0,1,.848-.39h3.589a1.137,1.137,0,0,1,1.135,1.135Z" transform="translate(-76.082 -186.29)" fill="#c48958" fill-rule="evenodd"/>
        </g>
        <path id="Trazado_900922" data-name="Trazado 900922" d="M9.525,56.543V40.733h6.014v4.44a.765.765,0,0,0,.765.765h7.761a.765.765,0,0,0,.765-.765v-4.44H38.6v4.44a.765.765,0,0,0,.765.765h7.761a.765.765,0,0,0,.765-.765v-4.44H53.9v15.81Zm7.544-15.81v3.675H23.3V40.733Zm23.056,0v3.675h6.23V40.733ZM12.257,37H51.172l1.85,2.2H10.4Zm3.583-6.175a.371.371,0,0,1,.369-.37h.275a.81.81,0,0,0,.14-.013v.013h3.165a.372.372,0,0,1,.374.37v.865l-2.183,3.78H15.84ZM11.55,16.846A9.981,9.981,0,0,0,9.7,18.1a8.23,8.23,0,0,1,1.247-3.111A4.789,4.789,0,0,1,14.976,12.8h2.809l.284,0c.18,0,.428,0,.594.009a2.108,2.108,0,0,0,2.057,1.832A2.067,2.067,0,0,0,22.79,12.8h2.237v6.371H22.795a2.047,2.047,0,0,0-4.083.206v9.552H17.249V19.689a3.256,3.256,0,0,0-1.5-2.913,4.345,4.345,0,0,0-4.2.07Zm10.5,14.727a.15.15,0,0,0-.094.07l-2.21,3.827H24.8l.945-1.639a.136.136,0,0,0,.013-.115.154.154,0,0,0-.072-.092l-3.061-1.769h0l-.464-.266a.144.144,0,0,0-.112-.014ZM30.9,19.056,24.051,30.911l1.278.737,6.842-11.855a.746.746,0,0,1,.221-.242l1.8-1.276,1.094-3.562-1.549-.893L31.2,16.547l-.2,2.2a.839.839,0,0,1-.1.311Zm3.282,7.307a2.9,2.9,0,1,1,5.8,0V35.47h-5.8V26.363Zm10.889-4.6a4.993,4.993,0,0,1-1.431-8.288v4.337a.761.761,0,0,0,.383.663l2.6,1.5a.767.767,0,0,0,.765,0l2.6-1.5a.762.762,0,0,0,.383-.663V13.474a4.993,4.993,0,0,1-1.431,8.288.765.765,0,0,0-.468.7v13H45.536v-13a.765.765,0,0,0-.468-.7ZM55.25,39.476l-3.138-3.733a.77.77,0,0,0-.585-.273H49.993V22.954a6.521,6.521,0,0,0-.05-11.609.766.766,0,0,0-1.112.682V17.37L47,18.428,45.167,17.37V12.027a.766.766,0,0,0-1.112-.682,6.521,6.521,0,0,0-.05,11.609V35.47h-2.5V26.363a4.427,4.427,0,1,0-8.854,0V35.47h-6.09l.5-.874a1.685,1.685,0,0,0-.423-2.167L33.414,20.7l1.877-1.329a.755.755,0,0,0,.288-.4l1.346-4.393a.769.769,0,0,0-.347-.887l-2.6-1.5a.762.762,0,0,0-.941.141L29.9,15.695a.744.744,0,0,0-.2.451l-.212,2.291-6.77,11.726a1.673,1.673,0,0,0-1.067-.067c-.036.009-.063.02-.094.031a1.912,1.912,0,0,0-1.314-1.147V19.373a.515.515,0,1,1,1.031,0A1.326,1.326,0,0,0,22.6,20.7h2.638a1.325,1.325,0,0,0,1.323-1.324V12.591a1.323,1.323,0,0,0-1.323-1.324H22.6a1.325,1.325,0,0,0-1.323,1.324.548.548,0,0,1-.554.515.591.591,0,0,1-.554-.593,1.231,1.231,0,0,0-.977-1.165,4.3,4.3,0,0,0-1.139-.083l-.266,0H14.976a6.221,6.221,0,0,0-5.289,2.852,10.427,10.427,0,0,0-1.693,5.814.767.767,0,0,0,1.265.582c.225-.2.441-.388.653-.574a11.089,11.089,0,0,1,2.336-1.733,2.872,2.872,0,0,1,2.7-.125,1.743,1.743,0,0,1,.77,1.607v9.3a1.9,1.9,0,0,0-1.409,1.836V35.47H11.9a.764.764,0,0,0-.585.273L8.174,39.476a.76.76,0,0,0-.18.492v17.34a.765.765,0,0,0,.765.765H54.665a.765.765,0,0,0,.765-.765V39.968a.76.76,0,0,0-.18-.492Zm-17.407-9.19a.765.765,0,1,0-1.531,0v3.354a.765.765,0,1,0,1.531,0Zm-.765-3.361a.562.562,0,1,0-.558-.561A.562.562,0,0,0,37.078,26.924Zm0-2.653a2.092,2.092,0,1,1-2.089,2.092A2.093,2.093,0,0,1,37.078,24.271Z" fill="#242222" fill-rule="evenodd"/>
      </g>
      <rect id="Rectángulo_402375" data-name="Rectángulo 402375" width="58" height="58" transform="translate(-6859 -10739)" fill="none"/>
    </g>
  </g>
</svg>
