<svg xmlns="http://www.w3.org/2000/svg" xmlns:xlink="http://www.w3.org/1999/xlink" width="108.914" height="108.914" viewBox="0 0 108.914 108.914">
  <defs>
    <filter id="Trazado_874925" x="0" y="0" width="108.914" height="108.914" filterUnits="userSpaceOnUse">
      <feOffset dy="3" input="SourceAlpha"/>
      <feGaussianBlur stdDeviation="3" result="blur"/>
      <feFlood flood-opacity="0.161"/>
      <feComposite operator="in" in2="blur"/>
      <feComposite in="SourceGraphic"/>
    </filter>
  </defs>
  <g id="Grupo_1113098" data-name="Grupo 1113098" transform="translate(4794.249 10740.789)">
    <g id="Grupo_1109131" data-name="Grupo 1109131" transform="translate(-4785.249 -10734.789)">
      <g transform="matrix(1, 0, 0, 1, -9, -6)" filter="url(#Trazado_874925)">
        <g id="Trazado_874925-2" data-name="Trazado 874925" transform="translate(9 6)" fill="#cdd2dc" opacity="0.859">
          <path d="M 45.45676803588867 89.41407012939453 C 39.52198028564453 89.41407012939453 33.76551818847656 88.25206756591797 28.34726715087891 85.96034240722656 C 23.11311721801758 83.74648284912109 18.41204261779785 80.57682800292969 14.37464332580566 76.5394287109375 C 10.33724308013916 72.50202941894531 7.167593002319336 67.80095672607422 4.953730583190918 62.56679534912109 C 2.662005424499512 57.14855575561523 1.500005483627319 51.39208221435547 1.500005483627319 45.45729446411133 C 1.500005483627319 39.52198028564453 2.662005424499512 33.76551818847656 4.953730583190918 28.34726905822754 C 7.167593002319336 23.11310577392578 10.33724308013916 18.41203117370605 14.37464332580566 14.37464332580566 C 18.41204261779785 10.33724403381348 23.11311721801758 7.167593955993652 28.34726715087891 4.953731060028076 C 33.76551818847656 2.662006139755249 39.52198028564453 1.500006198883057 45.45676803588867 1.500006198883057 C 51.39155578613281 1.500006198883057 57.14802932739258 2.662006139755249 62.56626892089844 4.953731060028076 C 67.80043029785156 7.167593955993652 72.50150299072266 10.33724403381348 76.53890228271484 14.37464332580566 C 80.57630920410156 18.41203117370605 83.74595642089844 23.11310577392578 85.95981597900391 28.34726905822754 C 88.25154113769531 33.76551818847656 89.41354370117188 39.52198028564453 89.41354370117188 45.45676803588867 C 89.41354370117188 51.39208221435547 88.25154113769531 57.14855575561523 85.95981597900391 62.56679534912109 C 83.74595642089844 67.80095672607422 80.57630920410156 72.50202941894531 76.53890228271484 76.5394287109375 C 72.50150299072266 80.57682800292969 67.80043029785156 83.74648284912109 62.56626892089844 85.96034240722656 C 57.14802932739258 88.25206756591797 51.39155578613281 89.41407012939453 45.45676803588867 89.41407012939453 Z" stroke="none"/>
          <path d="M 45.45676803588867 3 C 39.72381210327148 3 34.1639404296875 4.12213134765625 28.93159484863281 6.335227966308594 C 23.87622833251953 8.473472595214844 19.33542633056641 11.53517150878906 15.43529510498047 15.435302734375 C 11.53517150878906 19.33543395996094 8.473464965820312 23.87622833251953 6.335227966308594 28.93160247802734 C 4.122123718261719 34.16394424438477 3 39.72381591796875 3 45.4572868347168 C 3 51.19024658203125 4.122123718261719 56.75011825561523 6.335227966308594 61.98246002197266 C 8.473464965820312 67.03782653808594 11.53517150878906 71.57862854003906 15.43529510498047 75.478759765625 C 19.33542633056641 79.37889099121094 23.87622833251953 82.44058990478516 28.93159484863281 84.57883453369141 C 34.1639404296875 86.79193115234375 39.72381210327148 87.9140625 45.45676803588867 87.9140625 C 51.18972396850586 87.9140625 56.74959564208984 86.79193115234375 61.98194122314453 84.57883453369141 C 67.03730773925781 82.44058990478516 71.57810974121094 79.37889099121094 75.47824096679688 75.478759765625 C 79.37837219238281 71.57862854003906 82.44007110595703 67.03782653808594 84.57830810546875 61.98246002197266 C 86.79141235351562 56.75011825561523 87.91353607177734 51.19024658203125 87.91353607177734 45.4567756652832 C 87.91353607177734 39.72381591796875 86.79141235351562 34.16394424438477 84.57830810546875 28.93160247802734 C 82.44007110595703 23.87622833251953 79.37837219238281 19.33543395996094 75.47824096679688 15.435302734375 C 71.57810974121094 11.53517150878906 67.03730773925781 8.473472595214844 61.98194122314453 6.335227966308594 C 56.74959564208984 4.12213134765625 51.18972396850586 3 45.45676803588867 3 M 45.45676803588867 0 C 70.56185150146484 0 90.91353607177734 20.35169219970703 90.91353607177734 45.4567756652832 L 90.91353607177734 45.4572868347168 C 90.91353607177734 70.5623779296875 70.56185150146484 90.9140625 45.45676803588867 90.9140625 C 20.3516845703125 90.9140625 0 70.5623779296875 0 45.4572868347168 L 0 45.4567756652832 C 0 20.35169219970703 20.3516845703125 0 45.45676803588867 0 Z" stroke="none" fill="#fff"/>
        </g>
      </g>
      <g id="Grupo_1109130" data-name="Grupo 1109130">
        <g id="Trazado_874923" data-name="Trazado 874923" fill="none">
          <path d="M45.457,0A45.457,45.457,0,0,1,90.914,45.457h0A45.457,45.457,0,0,1,0,45.457H0A45.457,45.457,0,0,1,45.457,0Z" stroke="none"/>
          <path d="M 45.45676803588867 3 C 39.72381210327148 3 34.1639404296875 4.12213134765625 28.93159484863281 6.335227966308594 C 23.87622833251953 8.473472595214844 19.33542633056641 11.53517150878906 15.43529510498047 15.435302734375 C 11.53517150878906 19.33543395996094 8.473464965820312 23.87622833251953 6.335227966308594 28.93160247802734 C 4.122123718261719 34.16394424438477 3 39.72381591796875 3 45.4572868347168 C 3 51.19024658203125 4.122123718261719 56.75011825561523 6.335227966308594 61.98246002197266 C 8.473464965820312 67.03782653808594 11.53517150878906 71.57862854003906 15.43529510498047 75.478759765625 C 19.33542633056641 79.37889099121094 23.87622833251953 82.44058990478516 28.93159484863281 84.57883453369141 C 34.1639404296875 86.79193115234375 39.72381210327148 87.9140625 45.45676803588867 87.9140625 C 51.18972396850586 87.9140625 56.74959564208984 86.79193115234375 61.98194122314453 84.57883453369141 C 67.03730773925781 82.44058990478516 71.57810974121094 79.37889099121094 75.47824096679688 75.478759765625 C 79.37837219238281 71.57862854003906 82.44007110595703 67.03782653808594 84.57830810546875 61.98246002197266 C 86.79141235351562 56.75011825561523 87.91353607177734 51.19024658203125 87.91353607177734 45.4567756652832 C 87.91353607177734 39.72381591796875 86.79141235351562 34.16394424438477 84.57830810546875 28.93160247802734 C 82.44007110595703 23.87622833251953 79.37837219238281 19.33543395996094 75.47824096679688 15.435302734375 C 71.57810974121094 11.53517150878906 67.03730773925781 8.473472595214844 61.98194122314453 6.335227966308594 C 56.74959564208984 4.12213134765625 51.18972396850586 3 45.45676803588867 3 M 45.45676803588867 0 C 70.56185150146484 0 90.91353607177734 20.35169219970703 90.91353607177734 45.4567756652832 L 90.91353607177734 45.4572868347168 C 90.91353607177734 70.5623779296875 70.56185150146484 90.9140625 45.45676803588867 90.9140625 C 20.3516845703125 90.9140625 0 70.5623779296875 0 45.4572868347168 L 0 45.4567756652832 C 0 20.35169219970703 20.3516845703125 0 45.45676803588867 0 Z" stroke="none" fill="#fff"/>
        </g>
      </g>
    </g>
    <g id="Grupo_1109868" data-name="Grupo 1109868" transform="translate(1471.751)">
      <rect id="Rectángulo_402373" data-name="Rectángulo 402373" width="58" height="58" transform="translate(-6241 -10718)" fill="none"/>
      <g id="Layer_x0020_1" transform="translate(-6236 -10710.119)">
        <path id="Trazado_900948" data-name="Trazado 900948" d="M16.98,37.07A16.9,16.9,0,0,1,.129,20.219V3.412A3.109,3.109,0,0,1,3.235.307H30.726a3.109,3.109,0,0,1,3.105,3.105V20.219A16.9,16.9,0,0,1,16.98,37.07ZM3.235,1.455A1.959,1.959,0,0,0,1.278,3.412V20.219a15.72,15.72,0,0,0,15.7,15.7h0a15.72,15.72,0,0,0,15.7-15.7V3.412a1.959,1.959,0,0,0-1.957-1.957H3.235Z" transform="translate(3.585 5.187)" fill-rule="evenodd"/>
        <path id="Trazado_900949" data-name="Trazado 900949" d="M24.737,10.864H.855A.574.574,0,0,1,.28,10.29v-9.1A.574.574,0,0,1,.855.619h2.8a.574.574,0,0,1,.574.574V2.14H5.82V1.193A.574.574,0,0,1,6.394.619h5.033A.574.574,0,0,1,12,1.193V2.14h1.59V1.193a.574.574,0,0,1,.574-.574H19.2a.574.574,0,0,1,.574.574V2.14h1.59V1.193a.574.574,0,0,1,.574-.574h2.8a.574.574,0,0,1,.574.574v9.1a.574.574,0,0,1-.574.574ZM1.429,9.716H24.163V1.767H22.51v.947a.574.574,0,0,1-.574.574H19.2a.574.574,0,0,1-.574-.574V1.767H14.739v.947a.574.574,0,0,1-.574.574H11.427a.574.574,0,0,1-.574-.574V1.767H6.968v.947a.574.574,0,0,1-.574.574H3.656a.574.574,0,0,1-.574-.574V1.767H1.429V9.716Z" transform="translate(7.77 13.839)" fill-rule="evenodd"/>
        <path id="Trazado_900950" data-name="Trazado 900950" d="M26.568,4.042H22.835a.574.574,0,0,1-.574-.574V1.111a.574.574,0,0,1,.574-.574h3.733a.574.574,0,0,1,.574.574V3.468A.574.574,0,0,1,26.568,4.042ZM23.41,2.894h2.584V1.685H23.41ZM20.1,4.042H15.064a.574.574,0,0,1-.574-.574V1.111a.574.574,0,0,1,.574-.574H20.1a.574.574,0,0,1,.574.574V3.468A.574.574,0,0,1,20.1,4.042ZM15.639,2.894h3.884V1.685H15.639ZM12.326,4.042H7.293a.574.574,0,0,1-.574-.574V1.111A.574.574,0,0,1,7.293.537h5.033a.574.574,0,0,1,.574.574V3.468A.574.574,0,0,1,12.326,4.042ZM7.867,2.894h3.884V1.685H7.867ZM4.555,4.042H.822a.574.574,0,0,1-.574-.574V1.111A.574.574,0,0,1,.822.537H4.555a.574.574,0,0,1,.574.574V3.468A.574.574,0,0,1,4.555,4.042ZM1.4,2.894H3.981V1.685H1.4Z" transform="translate(6.87 11.564)" fill-rule="evenodd"/>
        <path id="Trazado_900951" data-name="Trazado 900951" d="M3.891,12.157H1.837a.574.574,0,0,1-.574-.574V1.087A.574.574,0,0,1,1.837.512H3.916a2.213,2.213,0,0,1,2.21,2.21v7.2a2.238,2.238,0,0,1-2.235,2.235Zm-1.48-1.148h1.48A1.088,1.088,0,0,0,4.978,9.922v-7.2A1.063,1.063,0,0,0,3.916,1.661h-1.5v9.348h0Z" transform="translate(35.005 10.888)" fill-rule="evenodd"/>
        <path id="Trazado_900952" data-name="Trazado 900952" d="M4.289,12.157H2.235A2.238,2.238,0,0,1,0,9.922v-7.2A2.213,2.213,0,0,1,2.21.512H4.289a.574.574,0,0,1,.574.574v10.5a.574.574,0,0,1-.574.574ZM2.21,1.661A1.063,1.063,0,0,0,1.148,2.723v7.2a1.088,1.088,0,0,0,1.087,1.087h1.48V1.661H2.21Z" transform="translate(0 10.888)" fill-rule="evenodd"/>
        <path id="Trazado_900953" data-name="Trazado 900953" d="M3.69,7.033H.952a.574.574,0,0,1-.574-.574v-5.4A.574.574,0,0,1,.952.484H3.69a.574.574,0,0,1,.574.574v5.4a.574.574,0,0,1-.574.574ZM1.526,5.884h1.59V1.632H1.526V5.884Z" transform="translate(10.473 10.095)" fill-rule="evenodd"/>
        <path id="Trazado_900954" data-name="Trazado 900954" d="M3.961,7.033H1.223a.574.574,0,0,1-.574-.574v-5.4A.574.574,0,0,1,1.223.484H3.961a.574.574,0,0,1,.574.574v5.4a.574.574,0,0,1-.574.574ZM1.8,5.884h1.59V1.632H1.8V5.884Z" transform="translate(17.974 10.095)" fill-rule="evenodd"/>
        <path id="Trazado_900955" data-name="Trazado 900955" d="M4.232,7.033H1.494a.574.574,0,0,1-.574-.574v-5.4A.574.574,0,0,1,1.494.484H4.232a.574.574,0,0,1,.574.574v5.4a.574.574,0,0,1-.574.574ZM2.068,5.884h1.59V1.632H2.068V5.884Z" transform="translate(25.474 10.095)" fill-rule="evenodd"/>
        <path id="Trazado_900956" data-name="Trazado 900956" d="M26.292,6.642H.827A.574.574,0,0,1,.288,5.87c.6-1.642,2.278-3.12,4.723-4.164A22.319,22.319,0,0,1,13.559.12a22.323,22.323,0,0,1,8.548,1.586C24.528,2.74,26.2,4.2,26.812,5.823a.575.575,0,0,1-.52.818ZM1.761,5.493h23.6c-1.624-2.456-6.437-4.225-11.8-4.225S3.385,3.037,1.761,5.493Z" transform="translate(7.007 0)" fill-rule="evenodd"/>
        <path id="Trazado_900957" data-name="Trazado 900957" d="M1.072,7.448A.574.574,0,0,1,.5,6.874V1.726a.574.574,0,0,1,1.148,0V6.874A.574.574,0,0,1,1.072,7.448Z" transform="translate(13.806 28.602)" fill-rule="evenodd"/>
        <path id="Trazado_900958" data-name="Trazado 900958" d="M1.171,9.387A.574.574,0,0,1,.6,8.813V1.692a.574.574,0,1,1,1.148,0V8.813A.574.574,0,0,1,1.171,9.387Z" transform="translate(16.551 27.65)" fill-rule="evenodd"/>
        <path id="Trazado_900959" data-name="Trazado 900959" d="M1.271,12.07A.574.574,0,0,1,.7,11.5V1.644a.574.574,0,1,1,1.148,0V11.5A.574.574,0,0,1,1.271,12.07Z" transform="translate(19.295 26.332)" fill-rule="evenodd"/>
        <path id="Trazado_900960" data-name="Trazado 900960" d="M1.37,9.387A.574.574,0,0,1,.8,8.813V1.692a.574.574,0,0,1,1.148,0V8.813A.574.574,0,0,1,1.37,9.387Z" transform="translate(22.039 27.65)" fill-rule="evenodd"/>
        <path id="Trazado_900961" data-name="Trazado 900961" d="M1.469,7.448a.574.574,0,0,1-.574-.574V1.726a.574.574,0,0,1,1.148,0V6.874A.574.574,0,0,1,1.469,7.448Z" transform="translate(24.784 28.602)" fill-rule="evenodd"/>
        <path id="Trazado_900962" data-name="Trazado 900962" d="M4.224,17.08A2.747,2.747,0,0,1,1.48,14.336V3.488a2.744,2.744,0,0,1,5.488,0V14.336A2.747,2.747,0,0,1,4.224,17.08Zm0-15.187a1.6,1.6,0,0,0-1.6,1.6V14.336a1.6,1.6,0,0,0,1.6,1.6h0a1.6,1.6,0,0,0,1.6-1.6V3.488a1.6,1.6,0,0,0-1.6-1.6Z" transform="translate(41.02 17.307)" fill-rule="evenodd"/>
        <path id="Trazado_900963" data-name="Trazado 900963" d="M4.249,13.354a.574.574,0,0,1-.574-.567l-.02-1.552V3.183L1.663,1.325a.574.574,0,0,1,.783-.84L4.621,2.513a.574.574,0,0,1,.183.42v8.295l.02,1.545a.574.574,0,0,1-.567.582H4.249Z" transform="translate(41.014 5.845)" fill-rule="evenodd"/>
        <path id="Trazado_900964" data-name="Trazado 900964" d="M5.312,1.715H2.13a.574.574,0,1,1,0-1.148H5.312a.574.574,0,0,1,0,1.148Z" transform="translate(43.114 12.388)" fill-rule="evenodd"/>
        <path id="Trazado_900965" data-name="Trazado 900965" d="M2.241,5.6a.574.574,0,0,1-.574-.574V1.072a.574.574,0,1,1,1.148,0V5.027A.574.574,0,0,1,2.241,5.6Z" transform="translate(46.185 10.48)" fill-rule="evenodd"/>
        <path id="Trazado_900966" data-name="Trazado 900966" d="M5.077,7.479a3.529,3.529,0,0,1-2.512-1.04C1.483,5.356,1.408,3.364,1.347,1.762c-.014-.36-.026-.7-.05-1A.574.574,0,0,1,1.914.147c.3.023.638.036,1,.05,1.6.061,3.594.136,4.676,1.218A3.552,3.552,0,0,1,5.077,7.479Zm-2.6-6.15q.008.191.015.39c.053,1.4.119,3.144.883,3.907a2.4,2.4,0,1,0,3.4-3.4c-.764-.764-2.507-.83-3.908-.883l-.39-.015Z" transform="translate(35.897 0.707)" fill-rule="evenodd"/>
        <path id="Trazado_900967" data-name="Trazado 900967" d="M3.617,4.58a2.1,2.1,0,0,1-1.494-.619,3.881,3.881,0,0,1-.711-2.6C1.4,1.175,1.4,1,1.387.853A.574.574,0,0,1,2,.236c.149.012.322.018.505.025a3.882,3.882,0,0,1,2.6.711A2.113,2.113,0,0,1,3.617,4.58ZM2.563,1.413a3.123,3.123,0,0,0,.371,1.736A.965.965,0,0,0,4.3,1.784a3.123,3.123,0,0,0-1.736-.371Z" transform="translate(38.375 3.185)" fill-rule="evenodd"/>
        <path id="Trazado_900968" data-name="Trazado 900968" d="M2.008,3.829V.524H.418V3.817s0,.008,0,.012v.947h1.59V3.84s0-.008,0-.012Z" transform="translate(11.582 11.203)" fill="#ffc054" fill-rule="evenodd"/>
        <path id="Trazado_900969" data-name="Trazado 900969" d="M.513.577V1.785H4.4V.577Z" transform="translate(14.224 12.672)" fill="#384466" fill-rule="evenodd"/>
        <path id="Trazado_900970" data-name="Trazado 900970" d="M.689,1.471V3.817s0,.008,0,.012v.947h1.59V.524H.689Z" transform="translate(19.082 11.203)" fill="#ffc054" fill-rule="evenodd"/>
        <path id="Trazado_900971" data-name="Trazado 900971" d="M.784.577V1.785H4.668V.577Z" transform="translate(21.725 12.672)" fill="#384466" fill-rule="evenodd"/>
        <path id="Trazado_900972" data-name="Trazado 900972" d="M.959,1.471v3.3h1.59V.524H.959Z" transform="translate(26.582 11.203)" fill="#ffc054" fill-rule="evenodd"/>
        <path id="Trazado_900973" data-name="Trazado 900973" d="M1.055.577V1.785H3.639V.577Z" transform="translate(29.225 12.672)" fill="#384466" fill-rule="evenodd"/>
        <path id="Trazado_900974" data-name="Trazado 900974" d="M2.872,1.785V.577H.288V1.785H2.872Z" transform="translate(7.979 12.672)" fill="#384466" fill-rule="evenodd"/>
        <path id="Trazado_900975" data-name="Trazado 900975" d="M5.285,2.18H2.547a.574.574,0,0,1-.574-.574V.659H.32V8.607H23.054V.659H21.4v.947a.574.574,0,0,1-.574.574H18.089a.574.574,0,0,1-.574-.574V.659H13.631v.947a.574.574,0,0,1-.574.574H10.318a.574.574,0,0,1-.574-.574V.659H5.86v.947a.574.574,0,0,1-.574.574Z" transform="translate(8.878 14.947)" fill="#1ad1ff" fill-rule="evenodd"/>
        <path id="Trazado_900976" data-name="Trazado 900976" d="M.305,4.385H23.9C22.276,1.928,17.464.16,12.1.16S1.93,1.929.305,4.385Z" transform="translate(8.462 1.108)" fill="#576f8d" fill-rule="evenodd"/>
        <path id="Trazado_900977" data-name="Trazado 900977" d="M28.605.347H2.126A1.959,1.959,0,0,0,.169,2.3V19.111a15.7,15.7,0,1,0,31.4,0V2.3A1.959,1.959,0,0,0,29.617.347H28.605ZM10.044,5.806h3.884V4.858a.574.574,0,0,1,.574-.574h2.738a.574.574,0,0,1,.574.574v.948H21.7V4.858a.574.574,0,0,1,.574-.574h2.738a.574.574,0,0,1,.574.574v.948h3.159a.574.574,0,0,1,.574.574V8.737a.574.574,0,0,1-.574.574h-.357v8.522a.574.574,0,0,1-.574.574H3.931a.574.574,0,0,1-.574-.574V9.311H3a.574.574,0,0,1-.574-.574V6.38A.574.574,0,0,1,3,5.806H6.157V4.858a.574.574,0,0,1,.574-.574H9.47a.574.574,0,0,1,.574.574v.948ZM15.3,31.533V21.681a.574.574,0,0,1,1.148,0v9.851a.574.574,0,0,1-1.148,0Zm-2.843-8.486a.574.574,0,0,1,1.148,0v7.121a.574.574,0,1,1-1.148,0Zm-2.269.412a.574.574,0,0,1,.574.574v5.148a.574.574,0,0,1-1.148,0V24.033A.574.574,0,0,1,10.185,23.459Zm8.53-.987a.574.574,0,0,1,.574.574v7.121a.574.574,0,1,1-1.148,0V23.046A.574.574,0,0,1,18.715,22.472Zm2.269,6.709V24.033a.574.574,0,0,1,1.148,0v5.148a.574.574,0,1,1-1.148,0Z" transform="translate(4.694 6.295)" fill="#445f80" fill-rule="evenodd"/>
        <path id="Trazado_900978" data-name="Trazado 900978" d="M2.606,9.9V.552H1.1A1.063,1.063,0,0,0,.04,1.614v7.2A1.088,1.088,0,0,0,1.127,9.9h1.48Z" transform="translate(1.108 11.996)" fill="#576f8d" fill-rule="evenodd"/>
        <path id="Trazado_900979" data-name="Trazado 900979" d="M1.3.553V9.9h1.48A1.088,1.088,0,0,0,3.87,8.813v-7.2A1.063,1.063,0,0,0,2.808.552H1.3Z" transform="translate(36.113 11.996)" fill="#576f8d" fill-rule="evenodd"/>
        <path id="Trazado_900980" data-name="Trazado 900980" d="M1.8,2.012a.966.966,0,0,0,1.34.025l.025-.025,0,0a.966.966,0,0,0,0-1.362A3.123,3.123,0,0,0,1.426.275,3.123,3.123,0,0,0,1.8,2.012Z" transform="translate(39.512 4.322)" fill="#ff9c44" fill-rule="evenodd"/>
        <path id="Trazado_900981" data-name="Trazado 900981" d="M2.888,1.738a.574.574,0,0,1,.45-.166c.149.012.322.018.505.025a4.43,4.43,0,0,1,2.408.544,2.389,2.389,0,0,0-.617-1.056C4.87.321,3.127.255,1.726.2L1.337.186l.015.39c.053,1.4.119,3.144.883,3.907A2.39,2.39,0,0,0,3.291,5.1a4.427,4.427,0,0,1-.544-2.408c-.007-.183-.014-.356-.025-.505a.575.575,0,0,1,.166-.45Z" transform="translate(37.04 1.85)" fill="#ffc054" fill-rule="evenodd"/>
        <path id="Trazado_900982" data-name="Trazado 900982" d="M3.116.784a1.6,1.6,0,0,0-1.6,1.6V13.227a1.6,1.6,0,0,0,3.191,0V2.379A1.6,1.6,0,0,0,3.143.784H3.116Z" transform="translate(42.128 18.415)" fill="#d8e3e7" fill-rule="evenodd"/>
        <path id="Trazado_900983" data-name="Trazado 900983" d="M2.13,9.559a.574.574,0,0,1-.574-.574V1.847a.574.574,0,0,1,1.148,0V8.985A.574.574,0,0,1,2.13,9.559Z" transform="translate(43.114 31.965)" fill-rule="evenodd"/>
      </g>
    </g>
  </g>
</svg>
